%
M48
M72
T01C0.01575
T02C0.01969
T03C0.03346
T04C0.04000
T05C0.04528
T06C0.04921
T07C0.06900
T08C0.09000
T09C0.12598
T10C0.16100
%
T01
X255337Y66557
X318329Y66557
T02
X326900Y72900
X307400Y72900
X290900Y72900
X277400Y72900
X246900Y72900
X236900Y55900
X200219Y72298
X190376Y56518
X125416Y72298
X190376Y131321
X180534Y147101
X190376Y206124
X200219Y221904
X227900Y253900
X227900Y258900
X221400Y273400
X237400Y277900
X252400Y289700
X257400Y284900
X262400Y288400
X267400Y286900
X266400Y282400
X274900Y281400
X276400Y270900
X287400Y251900
X285900Y244900
X301400Y260900
X301400Y266400
X258400Y250400
X242900Y256900
X235400Y246400
X256400Y273400
X225900Y312400
X215900Y316900
X221900Y328900
X237400Y324900
X254400Y336400
X221900Y362400
X200219Y371510
X180534Y296707
X190376Y280928
X125416Y221904
X105731Y296707
X50613Y221904
X30928Y296707
X50613Y371510
X125416Y371510
X265900Y203900
X278900Y199400
X286400Y212900
X242400Y172400
X235900Y183400
X258900Y141900
X265900Y141900
X271900Y141900
X278900Y141900
X329400Y104900
X329400Y97900
X336400Y49400
X340400Y38400
X276400Y42400
X103762Y147101
X50613Y72298
X30928Y147101
T03
X243526Y362817
X263211Y362817
T04
X286861Y349983
X286861Y339983
X286861Y329983
X273369Y300613
X263369Y300613
X253369Y300613
X243369Y300613
X233369Y300613
X286861Y200376
X286861Y190376
X286861Y180376
X343861Y180376
X343861Y200376
X343861Y329983
X343861Y349983
T05
X267148Y373447
X239589Y373447
T06
X337030Y277384
X337030Y245888
T07
X30770Y20770
X55770Y30770
X105573Y20770
X130573Y30770
X180376Y20770
X205376Y30770
X180376Y95573
X205376Y105573
X180376Y170376
X205376Y180376
X180376Y245180
X205376Y255180
X180376Y319983
X205376Y329983
X130573Y329983
X105573Y319983
X55770Y329983
X30770Y319983
X55770Y255180
X30770Y245180
X55770Y180376
X30770Y170376
X55770Y105573
X30770Y95573
X105573Y95573
X130573Y105573
X105573Y170376
X130573Y180376
X105573Y245180
X130573Y255180
T08
X316361Y216376
X316361Y164376
X316361Y313983
X316361Y365983
T09
X280928Y367542
X152975Y302581
X152975Y227778
X78172Y302581
X78172Y152975
X78172Y78172
X152975Y78172
X286833Y13211
X343920Y223841
T10
X190376Y190376
X190376Y265180
X190376Y339983
X115573Y339983
X115573Y265180
X115573Y190376
X115573Y115573
X115573Y40770
X40770Y40770
X40770Y115573
X40770Y190376
X40770Y265180
X40770Y339983
X190376Y115573
X190376Y40770
M30
