G75*
%MOIN*%
%OFA0B0*%
%FSLAX25Y25*%
%IPPOS*%
%LPD*%
%AMOC8*
5,1,8,0,0,1.08239X$1,22.5*
%
%ADD10C,0.13500*%
%ADD11C,0.16900*%
%ADD12C,0.06800*%
%ADD13C,0.13800*%
%ADD14R,0.02178X0.09461*%
%ADD15C,0.02375*%
%ADD16C,0.05721*%
%ADD17C,0.06800*%
%ADD18C,0.07591*%
%ADD19C,0.05820*%
%ADD20C,0.13398*%
D10*
X0030770Y0020770D03*
X0055770Y0030770D03*
X0105573Y0020770D03*
X0130573Y0030770D03*
X0180376Y0020770D03*
X0205376Y0030770D03*
X0180376Y0095573D03*
X0205376Y0105573D03*
X0180376Y0170376D03*
X0205376Y0180376D03*
X0180376Y0245180D03*
X0205376Y0255180D03*
X0180376Y0319983D03*
X0205376Y0329983D03*
X0130573Y0329983D03*
X0105573Y0319983D03*
X0055770Y0329983D03*
X0030770Y0319983D03*
X0055770Y0255180D03*
X0030770Y0245180D03*
X0055770Y0180376D03*
X0030770Y0170376D03*
X0055770Y0105573D03*
X0030770Y0095573D03*
X0105573Y0095573D03*
X0130573Y0105573D03*
X0105573Y0170376D03*
X0130573Y0180376D03*
X0105573Y0245180D03*
X0130573Y0255180D03*
D11*
X0115573Y0265180D03*
X0115573Y0190376D03*
X0115573Y0115573D03*
X0115573Y0040770D03*
X0040770Y0040770D03*
X0040770Y0115573D03*
X0040770Y0190376D03*
X0040770Y0265180D03*
X0040770Y0339983D03*
X0115573Y0339983D03*
X0190376Y0339983D03*
X0190376Y0265180D03*
X0190376Y0190376D03*
X0190376Y0115573D03*
X0190376Y0040770D03*
D12*
X0286861Y0180376D03*
X0286861Y0190376D03*
X0286861Y0200376D03*
X0343861Y0200376D03*
X0343861Y0180376D03*
X0343861Y0329983D03*
X0343861Y0349983D03*
X0286861Y0349983D03*
X0286861Y0339983D03*
X0286861Y0329983D03*
D13*
X0316361Y0313983D03*
X0316361Y0365983D03*
X0316361Y0216376D03*
X0316361Y0164376D03*
D14*
X0315770Y0083290D03*
X0313014Y0083290D03*
X0310258Y0083290D03*
X0307502Y0083290D03*
X0304746Y0083290D03*
X0301991Y0083290D03*
X0299235Y0083290D03*
X0296479Y0083290D03*
X0293723Y0083290D03*
X0290967Y0083290D03*
X0288211Y0083290D03*
X0285455Y0083290D03*
X0282699Y0083290D03*
X0279943Y0083290D03*
X0277187Y0083290D03*
X0274431Y0083290D03*
X0271676Y0083290D03*
X0268920Y0083290D03*
X0266164Y0083290D03*
X0263408Y0083290D03*
X0260652Y0083290D03*
X0257896Y0083290D03*
X0255140Y0083290D03*
X0252384Y0083290D03*
X0249628Y0083290D03*
X0246872Y0083290D03*
X0318526Y0083290D03*
X0321282Y0083290D03*
X0324038Y0083290D03*
X0326794Y0083290D03*
D15*
X0318329Y0066557D03*
X0255337Y0066557D03*
D16*
X0337030Y0245888D03*
X0337030Y0277384D03*
D17*
X0273369Y0297613D02*
X0273369Y0303613D01*
X0263369Y0303613D02*
X0263369Y0297613D01*
X0253369Y0297613D02*
X0253369Y0303613D01*
X0243369Y0303613D02*
X0243369Y0297613D01*
X0233369Y0297613D02*
X0233369Y0303613D01*
D18*
X0239589Y0373447D03*
X0267148Y0373447D03*
D19*
X0263211Y0362817D03*
X0243526Y0362817D03*
D20*
X0280928Y0367542D03*
X0152975Y0302581D03*
X0152975Y0227778D03*
X0078172Y0302581D03*
X0078172Y0152975D03*
X0078172Y0078172D03*
X0152975Y0078172D03*
X0286833Y0013211D03*
X0343920Y0223841D03*
M02*
