<?xml version="1.0" encoding="UTF-8" standalone="no"?>
<!-- Created with Inkscape (http://www.inkscape.org/) -->

<svg
   width="210mm"
   height="297mm"
   viewBox="0 0 210 297"
   version="1.1"
   id="svg180"
   sodipodi:docname="top.svg"
   inkscape:version="1.2.2 (732a01da63, 2022-12-09)"
   xmlns:inkscape="http://www.inkscape.org/namespaces/inkscape"
   xmlns:sodipodi="http://sodipodi.sourceforge.net/DTD/sodipodi-0.dtd"
   xmlns="http://www.w3.org/2000/svg"
   xmlns:svg="http://www.w3.org/2000/svg">
  <sodipodi:namedview
     id="namedview182"
     pagecolor="#ffffff"
     bordercolor="#000000"
     borderopacity="0.25"
     inkscape:showpageshadow="2"
     inkscape:pageopacity="0.0"
     inkscape:pagecheckerboard="0"
     inkscape:deskcolor="#d1d1d1"
     inkscape:document-units="mm"
     showgrid="false"
     inkscape:zoom="0.76791526"
     inkscape:cx="656.32241"
     inkscape:cy="833.42529"
     inkscape:window-width="1920"
     inkscape:window-height="1017"
     inkscape:window-x="1432"
     inkscape:window-y="1050"
     inkscape:window-maximized="1"
     inkscape:current-layer="g1010" />
  <defs
     id="defs177" />
  <g
     inkscape:label="Layer 1"
     inkscape:groupmode="layer"
     id="layer1">
    <g
       id="g1010"
       style="display:inline"
       transform="translate(-18.753094,140.14629)">
      <path
         style="fill:none;stroke:#000000;stroke-width:0.1;stroke-linecap:butt;stroke-linejoin:miter;stroke-miterlimit:4;stroke-dasharray:none;stroke-opacity:1"
         d="M 75.803064,152.80371 V 112.2494 c 0,-1.69429 1.34105,-3.037 3.038,-3.037 h 27.215996"
         id="path722" />
      <path
         style="fill:none;stroke:#000000;stroke-width:0.1;stroke-linecap:butt;stroke-linejoin:miter;stroke-miterlimit:4;stroke-dasharray:none;stroke-opacity:1"
         d="m 106.05702,109.2124 c 1.49694,0 2.74603,-1.73796 2.74603,-3.24599 l -3e-5,-10.845066 c 0,-0.30201 -0.40703,-0.49762 -0.69855,-0.66592 -0.27824,-0.16065 -0.35974,-0.56151 -0.35974,-0.86039 v -14.47902 c 0,-0.25298 0.1291,-0.56629 0.4019,-0.72378 0.27419,-0.1583 0.67236,-0.2679 0.67236,-0.51425 l -0.0159,-13.07445 c 0,-2.24871 -1.75227,-4 -4,-4 H 93.696 c -1.00322,0 -1.692,0.68159 -1.692,1.692 v 5.49499 c 0,0.49757 -0.35224,0.85451 -0.855,0.85451 h -8.698 c -0.49824,0 -0.854,-0.34904 -0.854,-0.8539 v -5.4956 c 0,-1.00395 -0.69483,-1.692 -1.692,-1.692 H 22.803094 c -2.2519,0 -4,1.7483 -4,4 v 87.999996 c 0,2.25008 1.74984,4 4,4 l 48.99997,1.8e-4 c 2.23952,0 4,-1.77106 4,-4"
         id="path1396" />
      <path
         style="fill:none;stroke:#000000;stroke-width:0.1"
         d="m 21.802856,139.80374 h 14 v 14 h -14 z"
         id="rect1398" />
      <path
         style="fill:none;stroke:#000000;stroke-width:0.1"
         d="m 40.802849,139.80374 h 14 v 14 h -14 z"
         id="rect1400" />
      <path
         style="fill:none;stroke:#000000;stroke-width:0.1"
         d="m 59.802849,139.80374 h 14 v 14 h -14 z"
         id="rect1402" />
      <path
         style="fill:none;stroke:#000000;stroke-width:0.1"
         d="m 21.802856,120.80372 h 14 v 14 h -14 z"
         id="rect1404" />
      <path
         style="fill:none;stroke:#000000;stroke-width:0.1"
         d="m 40.802849,120.80372 h 14 v 14 h -14 z"
         id="rect1406" />
      <path
         style="fill:none;stroke:#000000;stroke-width:0.1"
         d="m 59.802849,120.80372 h 14 v 14 h -14 z"
         id="rect1408" />
      <path
         style="fill:none;stroke:#000000;stroke-width:0.1"
         d="m 21.802856,101.80372 h 14 v 14 h -14 z"
         id="rect1410" />
      <path
         style="fill:none;stroke:#000000;stroke-width:0.1"
         d="m 40.802849,101.80372 h 14 v 14 h -14 z"
         id="rect1412" />
      <path
         style="fill:none;stroke:#000000;stroke-width:0.1"
         d="m 59.802849,101.80372 h 14 v 14 h -14 z"
         id="rect1414" />
      <path
         style="fill:none;stroke:#000000;stroke-width:0.1"
         d="m 21.802856,82.803703 h 14 v 14 h -14 z"
         id="rect1416" />
      <path
         style="fill:none;stroke:#000000;stroke-width:0.1"
         d="m 40.802849,82.803703 h 14 v 14 h -14 z"
         id="rect1418" />
      <path
         style="fill:none;stroke:#000000;stroke-width:0.1"
         d="m 59.802849,82.803703 h 14 v 14 h -14 z"
         id="rect1420" />
      <path
         style="fill:none;stroke:#000000;stroke-width:0.1"
         d="m 21.802856,63.803734 h 14 v 14 h -14 z"
         id="rect1422" />
      <path
         style="fill:none;stroke:#000000;stroke-width:0.1"
         d="m 40.802849,63.803734 h 14 v 14 h -14 z"
         id="rect1424" />
      <path
         style="fill:none;stroke:#000000;stroke-width:0.1"
         d="m 59.802849,63.803734 h 14 v 14 h -14 z"
         id="rect1426" />
      <path
         style="fill:none;stroke:#000000;stroke-width:0.1"
         d="m 58.433977,99.307274 a 1.1,1.1 0 0 1 -1.1,1.099996 1.1,1.1 0 0 1 -1.1,-1.099996 1.1,1.1 0 0 1 1.1,-1.1 1.1,1.1 0 0 1 1.1,1.1 z"
         id="circle1430" />
      <path
         style="fill:none;stroke:#000000;stroke-width:0.1"
         d="m 39.383241,80.257103 a 1.1,1.1 0 0 1 -1.1,1.1 1.1,1.1 0 0 1 -1.1,-1.1 1.1,1.1 0 0 1 1.1,-1.1 1.1,1.1 0 0 1 1.1,1.1 z"
         id="circle1432" />
      <path
         style="fill:none;stroke:#000000;stroke-width:0.1"
         d="m 58.433977,118.2734 a 1.1,1.1 0 0 1 -1.1,1.1 1.1,1.1 0 0 1 -1.1,-1.1 1.1,1.1 0 0 1 1.1,-1.1 1.1,1.1 0 0 1 1.1,1.1 z"
         id="circle1438" />
      <path
         style="fill:none;stroke:#000000;stroke-width:0.1"
         d="m 39.383241,137.32272 a 1.1,1.1 0 0 1 -1.1,1.1 1.1,1.1 0 0 1 -1.1,-1.1 1.1,1.1 0 0 1 1.1,-1.1 1.1,1.1 0 0 1 1.1,1.1 z"
         id="circle1440" />
      <path
         style="fill:none;stroke:#000000;stroke-width:0.1"
         d="m 101.95758,63.757637 a 1.1,1.1 0 0 1 -1.1,1.1 1.1,1.1 0 0 1 -1.099998,-1.1 1.1,1.1 0 0 1 1.099998,-1.1 1.1,1.1 0 0 1 1.1,1.1 z"
         id="circle1450" />
      <path
         style="fill:none;stroke:#000000;stroke-width:0.1"
         d="m 101.95758,98.803566 a 1.1,1.1 0 0 1 -1.1,1.1 1.1,1.1 0 0 1 -1.099998,-1.1 1.1,1.1 0 0 1 1.099998,-1.1 1.1,1.1 0 0 1 1.1,1.1 z"
         id="circle1456" />
    </g>
  </g>
</svg>
