G75*
%MOIN*%
%OFA0B0*%
%FSLAX25Y25*%
%IPPOS*%
%LPD*%
%AMOC8*
5,1,8,0,0,1.08239X$1,22.5*
%
%ADD10C,0.00600*%
%ADD11C,0.01000*%
%ADD12C,0.01200*%
%ADD13C,0.00400*%
%ADD14C,0.00800*%
%ADD15C,0.00500*%
%ADD16C,0.00300*%
%ADD17C,0.00039*%
%ADD18C,0.00295*%
D10*
X0039589Y0069935D02*
X0041951Y0069935D01*
X0041951Y0074660D02*
X0039589Y0074660D01*
X0039589Y0144739D02*
X0041951Y0144739D01*
X0041951Y0149463D02*
X0039589Y0149463D01*
X0039589Y0219542D02*
X0041951Y0219542D01*
X0041951Y0224266D02*
X0039589Y0224266D01*
X0039589Y0294345D02*
X0041951Y0294345D01*
X0041951Y0299069D02*
X0039589Y0299069D01*
X0039589Y0369148D02*
X0041951Y0369148D01*
X0041951Y0373872D02*
X0039589Y0373872D01*
X0114392Y0373872D02*
X0116754Y0373872D01*
X0116754Y0369148D02*
X0114392Y0369148D01*
X0114392Y0299069D02*
X0116754Y0299069D01*
X0116754Y0294345D02*
X0114392Y0294345D01*
X0114392Y0224266D02*
X0116754Y0224266D01*
X0116754Y0219542D02*
X0114392Y0219542D01*
X0114392Y0149463D02*
X0116754Y0149463D01*
X0116754Y0144739D02*
X0114392Y0144739D01*
X0114392Y0074660D02*
X0116754Y0074660D01*
X0116754Y0069935D02*
X0114392Y0069935D01*
X0189195Y0069935D02*
X0191557Y0069935D01*
X0191557Y0074660D02*
X0189195Y0074660D01*
X0232219Y0051762D02*
X0234581Y0051762D01*
X0234581Y0047038D02*
X0232219Y0047038D01*
X0232219Y0043262D02*
X0234581Y0043262D01*
X0234581Y0038538D02*
X0232219Y0038538D01*
X0191557Y0144739D02*
X0189195Y0144739D01*
X0189195Y0149463D02*
X0191557Y0149463D01*
X0221700Y0171700D02*
X0224903Y0171700D01*
X0225970Y0172768D01*
X0225970Y0177038D01*
X0224903Y0178105D01*
X0221700Y0178105D01*
X0221700Y0171700D01*
X0228145Y0171700D02*
X0228145Y0178105D01*
X0232416Y0178105D01*
X0234591Y0178105D02*
X0234591Y0172768D01*
X0235659Y0171700D01*
X0237794Y0171700D01*
X0238861Y0172768D01*
X0238861Y0178105D01*
X0239719Y0187038D02*
X0242081Y0187038D01*
X0242081Y0191762D02*
X0239719Y0191762D01*
X0236726Y0202700D02*
X0236726Y0209105D01*
X0234591Y0209105D02*
X0238861Y0209105D01*
X0232416Y0208038D02*
X0231348Y0209105D01*
X0229213Y0209105D01*
X0228145Y0208038D01*
X0228145Y0206970D01*
X0229213Y0205903D01*
X0231348Y0205903D01*
X0232416Y0204835D01*
X0232416Y0203768D01*
X0231348Y0202700D01*
X0229213Y0202700D01*
X0228145Y0203768D01*
X0225970Y0202700D02*
X0223835Y0204835D01*
X0224903Y0204835D02*
X0221700Y0204835D01*
X0221700Y0202700D02*
X0221700Y0209105D01*
X0224903Y0209105D01*
X0225970Y0208038D01*
X0225970Y0205903D01*
X0224903Y0204835D01*
X0228145Y0174903D02*
X0230281Y0174903D01*
X0261219Y0161262D02*
X0263581Y0161262D01*
X0263581Y0156538D02*
X0261219Y0156538D01*
X0274219Y0156538D02*
X0276581Y0156538D01*
X0276581Y0161262D02*
X0274219Y0161262D01*
X0271565Y0202895D02*
X0269895Y0204565D01*
X0273235Y0207905D02*
X0274905Y0206235D01*
X0279065Y0229395D02*
X0277395Y0231065D01*
X0280735Y0234405D02*
X0282405Y0232735D01*
X0285235Y0255395D02*
X0286905Y0257065D01*
X0283565Y0260405D02*
X0281895Y0258735D01*
X0276081Y0274538D02*
X0273719Y0274538D01*
X0273719Y0279262D02*
X0276081Y0279262D01*
X0275869Y0295613D02*
X0270869Y0295613D01*
X0268369Y0298113D01*
X0265869Y0295613D01*
X0260869Y0295613D01*
X0258369Y0298113D01*
X0255869Y0295613D01*
X0250869Y0295613D01*
X0248369Y0298113D01*
X0245869Y0295613D01*
X0240869Y0295613D01*
X0238369Y0298113D01*
X0235869Y0295613D01*
X0230869Y0295613D01*
X0228369Y0298113D01*
X0228369Y0303113D01*
X0230869Y0305613D01*
X0235869Y0305613D01*
X0238369Y0303113D01*
X0240869Y0305613D01*
X0245869Y0305613D01*
X0248369Y0303113D01*
X0248369Y0298113D01*
X0248369Y0303113D02*
X0250869Y0305613D01*
X0255869Y0305613D01*
X0258369Y0303113D01*
X0260869Y0305613D01*
X0265869Y0305613D01*
X0268369Y0303113D01*
X0270869Y0305613D01*
X0275869Y0305613D01*
X0278369Y0303113D01*
X0278369Y0298113D01*
X0275869Y0295613D01*
X0268369Y0298113D02*
X0268369Y0303113D01*
X0258369Y0303113D02*
X0258369Y0298113D01*
X0239762Y0287581D02*
X0239762Y0285219D01*
X0235038Y0285219D02*
X0235038Y0287581D01*
X0238369Y0298113D02*
X0238369Y0303113D01*
X0223762Y0319219D02*
X0223762Y0321581D01*
X0219038Y0321581D02*
X0219038Y0319219D01*
X0243054Y0323746D02*
X0243054Y0348345D01*
X0256676Y0348345D01*
X0256676Y0323746D01*
X0243054Y0323746D01*
X0231762Y0365219D02*
X0231762Y0367581D01*
X0227038Y0367581D02*
X0227038Y0365219D01*
X0191557Y0369148D02*
X0189195Y0369148D01*
X0189195Y0373872D02*
X0191557Y0373872D01*
X0191557Y0299069D02*
X0189195Y0299069D01*
X0189195Y0294345D02*
X0191557Y0294345D01*
X0233038Y0238081D02*
X0233038Y0235719D01*
X0237762Y0235719D02*
X0237762Y0238081D01*
X0256038Y0232581D02*
X0256038Y0230219D01*
X0260762Y0230219D02*
X0260762Y0232581D01*
X0191557Y0224266D02*
X0189195Y0224266D01*
X0189195Y0219542D02*
X0191557Y0219542D01*
X0332719Y0161262D02*
X0335081Y0161262D01*
X0335081Y0156538D02*
X0332719Y0156538D01*
X0346719Y0156538D02*
X0349081Y0156538D01*
X0349081Y0161262D02*
X0346719Y0161262D01*
X0345719Y0051762D02*
X0348081Y0051762D01*
X0348081Y0047038D02*
X0345719Y0047038D01*
D11*
X0260940Y0018405D02*
X0253600Y0018405D01*
X0257270Y0022075D02*
X0257270Y0014735D01*
X0265573Y0247955D02*
X0241164Y0247955D01*
X0240081Y0249038D01*
X0240081Y0273447D01*
X0241164Y0274530D01*
X0265573Y0274530D01*
X0266656Y0273447D01*
X0266656Y0249038D01*
X0265573Y0247955D01*
X0243132Y0253369D02*
X0243134Y0253466D01*
X0243140Y0253563D01*
X0243150Y0253659D01*
X0243164Y0253755D01*
X0243182Y0253851D01*
X0243203Y0253945D01*
X0243229Y0254039D01*
X0243258Y0254131D01*
X0243292Y0254222D01*
X0243328Y0254312D01*
X0243369Y0254400D01*
X0243413Y0254486D01*
X0243461Y0254571D01*
X0243512Y0254653D01*
X0243566Y0254734D01*
X0243624Y0254812D01*
X0243685Y0254887D01*
X0243748Y0254960D01*
X0243815Y0255031D01*
X0243885Y0255098D01*
X0243957Y0255163D01*
X0244032Y0255224D01*
X0244110Y0255283D01*
X0244189Y0255338D01*
X0244271Y0255390D01*
X0244355Y0255438D01*
X0244441Y0255483D01*
X0244529Y0255525D01*
X0244618Y0255563D01*
X0244709Y0255597D01*
X0244801Y0255627D01*
X0244894Y0255654D01*
X0244989Y0255676D01*
X0245084Y0255695D01*
X0245180Y0255710D01*
X0245276Y0255721D01*
X0245373Y0255728D01*
X0245470Y0255731D01*
X0245567Y0255730D01*
X0245664Y0255725D01*
X0245760Y0255716D01*
X0245856Y0255703D01*
X0245952Y0255686D01*
X0246047Y0255665D01*
X0246140Y0255641D01*
X0246233Y0255612D01*
X0246325Y0255580D01*
X0246415Y0255544D01*
X0246503Y0255505D01*
X0246590Y0255461D01*
X0246675Y0255415D01*
X0246758Y0255364D01*
X0246839Y0255311D01*
X0246917Y0255254D01*
X0246994Y0255194D01*
X0247067Y0255131D01*
X0247138Y0255065D01*
X0247206Y0254996D01*
X0247272Y0254924D01*
X0247334Y0254850D01*
X0247393Y0254773D01*
X0247449Y0254694D01*
X0247502Y0254612D01*
X0247552Y0254529D01*
X0247597Y0254443D01*
X0247640Y0254356D01*
X0247679Y0254267D01*
X0247714Y0254177D01*
X0247745Y0254085D01*
X0247772Y0253992D01*
X0247796Y0253898D01*
X0247816Y0253803D01*
X0247832Y0253707D01*
X0247844Y0253611D01*
X0247852Y0253514D01*
X0247856Y0253417D01*
X0247856Y0253321D01*
X0247852Y0253224D01*
X0247844Y0253127D01*
X0247832Y0253031D01*
X0247816Y0252935D01*
X0247796Y0252840D01*
X0247772Y0252746D01*
X0247745Y0252653D01*
X0247714Y0252561D01*
X0247679Y0252471D01*
X0247640Y0252382D01*
X0247597Y0252295D01*
X0247552Y0252209D01*
X0247502Y0252126D01*
X0247449Y0252044D01*
X0247393Y0251965D01*
X0247334Y0251888D01*
X0247272Y0251814D01*
X0247206Y0251742D01*
X0247138Y0251673D01*
X0247067Y0251607D01*
X0246994Y0251544D01*
X0246917Y0251484D01*
X0246839Y0251427D01*
X0246758Y0251374D01*
X0246675Y0251323D01*
X0246590Y0251277D01*
X0246503Y0251233D01*
X0246415Y0251194D01*
X0246325Y0251158D01*
X0246233Y0251126D01*
X0246140Y0251097D01*
X0246047Y0251073D01*
X0245952Y0251052D01*
X0245856Y0251035D01*
X0245760Y0251022D01*
X0245664Y0251013D01*
X0245567Y0251008D01*
X0245470Y0251007D01*
X0245373Y0251010D01*
X0245276Y0251017D01*
X0245180Y0251028D01*
X0245084Y0251043D01*
X0244989Y0251062D01*
X0244894Y0251084D01*
X0244801Y0251111D01*
X0244709Y0251141D01*
X0244618Y0251175D01*
X0244529Y0251213D01*
X0244441Y0251255D01*
X0244355Y0251300D01*
X0244271Y0251348D01*
X0244189Y0251400D01*
X0244110Y0251455D01*
X0244032Y0251514D01*
X0243957Y0251575D01*
X0243885Y0251640D01*
X0243815Y0251707D01*
X0243748Y0251778D01*
X0243685Y0251851D01*
X0243624Y0251926D01*
X0243566Y0252004D01*
X0243512Y0252085D01*
X0243461Y0252167D01*
X0243413Y0252252D01*
X0243369Y0252338D01*
X0243328Y0252426D01*
X0243292Y0252516D01*
X0243258Y0252607D01*
X0243229Y0252699D01*
X0243203Y0252793D01*
X0243182Y0252887D01*
X0243164Y0252983D01*
X0243150Y0253079D01*
X0243140Y0253175D01*
X0243134Y0253272D01*
X0243132Y0253369D01*
D12*
X0312000Y0017906D02*
X0321208Y0017906D01*
D13*
X0223176Y0036046D02*
X0222576Y0035445D01*
X0223176Y0036046D02*
X0223176Y0037247D01*
X0222576Y0037847D01*
X0221975Y0037847D01*
X0221375Y0037247D01*
X0221375Y0036046D01*
X0220774Y0035445D01*
X0220174Y0035445D01*
X0219573Y0036046D01*
X0219573Y0037247D01*
X0220174Y0037847D01*
X0220774Y0039129D02*
X0219573Y0040330D01*
X0223176Y0040330D01*
X0223176Y0039129D02*
X0223176Y0041531D01*
X0222576Y0042812D02*
X0223176Y0043412D01*
X0223176Y0044613D01*
X0222576Y0045214D01*
X0221375Y0045214D01*
X0220774Y0044613D01*
X0220774Y0044013D01*
X0221375Y0042812D01*
X0219573Y0042812D01*
X0219573Y0045214D01*
X0202042Y0055155D02*
X0200507Y0055155D01*
X0201274Y0055155D02*
X0201274Y0058224D01*
X0200507Y0058224D01*
X0201274Y0059759D02*
X0201274Y0060526D01*
X0201507Y0062422D02*
X0201507Y0065492D01*
X0199972Y0063957D02*
X0203042Y0063957D01*
X0178042Y0063457D02*
X0177274Y0064224D01*
X0175740Y0064224D01*
X0174972Y0063457D01*
X0174972Y0061922D01*
X0175740Y0061155D01*
X0177274Y0061155D01*
X0178042Y0061922D01*
X0178042Y0063457D01*
X0178042Y0056957D02*
X0174972Y0056957D01*
X0148373Y0044613D02*
X0144770Y0044613D01*
X0146572Y0042812D01*
X0146572Y0045214D01*
X0148373Y0041531D02*
X0148373Y0039129D01*
X0148373Y0040330D02*
X0144770Y0040330D01*
X0145971Y0039129D01*
X0145371Y0037847D02*
X0144770Y0037247D01*
X0144770Y0036046D01*
X0145371Y0035445D01*
X0145971Y0035445D01*
X0146572Y0036046D01*
X0146572Y0037247D01*
X0147172Y0037847D01*
X0147773Y0037847D01*
X0148373Y0037247D01*
X0148373Y0036046D01*
X0147773Y0035445D01*
X0127239Y0055155D02*
X0125704Y0055155D01*
X0126471Y0055155D02*
X0126471Y0058224D01*
X0125704Y0058224D01*
X0126471Y0059759D02*
X0126471Y0060526D01*
X0126704Y0062422D02*
X0126704Y0065492D01*
X0125169Y0063957D02*
X0128239Y0063957D01*
X0103239Y0063457D02*
X0102471Y0064224D01*
X0100937Y0064224D01*
X0100169Y0063457D01*
X0100169Y0061922D01*
X0100937Y0061155D01*
X0102471Y0061155D01*
X0103239Y0061922D01*
X0103239Y0063457D01*
X0103239Y0056957D02*
X0100169Y0056957D01*
X0073570Y0044613D02*
X0073570Y0043412D01*
X0072970Y0042812D01*
X0073570Y0041531D02*
X0073570Y0039129D01*
X0073570Y0040330D02*
X0069967Y0040330D01*
X0071168Y0039129D01*
X0070568Y0037847D02*
X0069967Y0037247D01*
X0069967Y0036046D01*
X0070568Y0035445D01*
X0071168Y0035445D01*
X0071769Y0036046D01*
X0071769Y0037247D01*
X0072369Y0037847D01*
X0072970Y0037847D01*
X0073570Y0037247D01*
X0073570Y0036046D01*
X0072970Y0035445D01*
X0070568Y0042812D02*
X0069967Y0043412D01*
X0069967Y0044613D01*
X0070568Y0045214D01*
X0071168Y0045214D01*
X0071769Y0044613D01*
X0072369Y0045214D01*
X0072970Y0045214D01*
X0073570Y0044613D01*
X0071769Y0044613D02*
X0071769Y0044013D01*
X0052435Y0055155D02*
X0050901Y0055155D01*
X0051668Y0055155D02*
X0051668Y0058224D01*
X0050901Y0058224D01*
X0051668Y0059759D02*
X0051668Y0060526D01*
X0051901Y0062422D02*
X0051901Y0065492D01*
X0050366Y0063957D02*
X0053435Y0063957D01*
X0028435Y0063457D02*
X0027668Y0064224D01*
X0026133Y0064224D01*
X0025366Y0063457D01*
X0025366Y0061922D01*
X0026133Y0061155D01*
X0027668Y0061155D01*
X0028435Y0061922D01*
X0028435Y0063457D01*
X0028435Y0056957D02*
X0025366Y0056957D01*
X0070568Y0110249D02*
X0071168Y0110249D01*
X0071769Y0110849D01*
X0071769Y0112050D01*
X0072369Y0112651D01*
X0072970Y0112651D01*
X0073570Y0112050D01*
X0073570Y0110849D01*
X0072970Y0110249D01*
X0070568Y0110249D02*
X0069967Y0110849D01*
X0069967Y0112050D01*
X0070568Y0112651D01*
X0071168Y0113932D02*
X0069967Y0115133D01*
X0073570Y0115133D01*
X0073570Y0113932D02*
X0073570Y0116334D01*
X0072970Y0117615D02*
X0070568Y0120017D01*
X0072970Y0120017D01*
X0073570Y0119416D01*
X0073570Y0118215D01*
X0072970Y0117615D01*
X0070568Y0117615D01*
X0069967Y0118215D01*
X0069967Y0119416D01*
X0070568Y0120017D01*
X0055039Y0130726D02*
X0055039Y0132260D01*
X0054272Y0133028D01*
X0052737Y0133028D01*
X0051970Y0132260D01*
X0051970Y0130726D01*
X0052737Y0129958D01*
X0054272Y0129958D01*
X0055039Y0130726D01*
X0055039Y0138760D02*
X0051970Y0138760D01*
X0029505Y0135958D02*
X0027970Y0135958D01*
X0028737Y0135958D02*
X0028737Y0139028D01*
X0027970Y0139028D01*
X0028737Y0140562D02*
X0028737Y0141330D01*
X0028505Y0133295D02*
X0028505Y0130226D01*
X0030039Y0131760D02*
X0026970Y0131760D01*
X0070568Y0186893D02*
X0071168Y0186893D01*
X0071769Y0187494D01*
X0071769Y0188695D01*
X0072369Y0189295D01*
X0072970Y0189295D01*
X0073570Y0188695D01*
X0073570Y0187494D01*
X0072970Y0186893D01*
X0070568Y0186893D02*
X0069967Y0187494D01*
X0069967Y0188695D01*
X0070568Y0189295D01*
X0069967Y0190576D02*
X0069967Y0192978D01*
X0070568Y0192978D01*
X0072970Y0190576D01*
X0073570Y0190576D01*
X0052435Y0204761D02*
X0050901Y0204761D01*
X0051668Y0204761D02*
X0051668Y0207831D01*
X0050901Y0207831D01*
X0051668Y0209365D02*
X0051668Y0210133D01*
X0051901Y0212029D02*
X0051901Y0215098D01*
X0050366Y0213563D02*
X0053435Y0213563D01*
X0028435Y0213063D02*
X0028435Y0211529D01*
X0027668Y0210761D01*
X0026133Y0210761D01*
X0025366Y0211529D01*
X0025366Y0213063D01*
X0026133Y0213831D01*
X0027668Y0213831D01*
X0028435Y0213063D01*
X0028435Y0206563D02*
X0025366Y0206563D01*
X0070568Y0261696D02*
X0071168Y0261696D01*
X0071769Y0262297D01*
X0071769Y0263498D01*
X0072369Y0264098D01*
X0072970Y0264098D01*
X0073570Y0263498D01*
X0073570Y0262297D01*
X0072970Y0261696D01*
X0070568Y0261696D02*
X0069967Y0262297D01*
X0069967Y0263498D01*
X0070568Y0264098D01*
X0071769Y0265380D02*
X0069967Y0267181D01*
X0073570Y0267181D01*
X0071769Y0267782D02*
X0071769Y0265380D01*
X0055039Y0280332D02*
X0055039Y0281867D01*
X0054272Y0282634D01*
X0052737Y0282634D01*
X0051970Y0281867D01*
X0051970Y0280332D01*
X0052737Y0279565D01*
X0054272Y0279565D01*
X0055039Y0280332D01*
X0055039Y0288367D02*
X0051970Y0288367D01*
X0029505Y0285565D02*
X0027970Y0285565D01*
X0028737Y0285565D02*
X0028737Y0288634D01*
X0027970Y0288634D01*
X0028737Y0290168D02*
X0028737Y0290936D01*
X0028505Y0282901D02*
X0028505Y0279832D01*
X0026970Y0281367D02*
X0030039Y0281367D01*
X0070568Y0336500D02*
X0071168Y0336500D01*
X0071769Y0337100D01*
X0071769Y0338301D01*
X0072369Y0338902D01*
X0072970Y0338902D01*
X0073570Y0338301D01*
X0073570Y0337100D01*
X0072970Y0336500D01*
X0070568Y0336500D02*
X0069967Y0337100D01*
X0069967Y0338301D01*
X0070568Y0338902D01*
X0071168Y0340183D02*
X0069967Y0341384D01*
X0073570Y0341384D01*
X0073570Y0340183D02*
X0073570Y0342585D01*
X0052435Y0354368D02*
X0050901Y0354368D01*
X0051668Y0354368D02*
X0051668Y0357437D01*
X0050901Y0357437D01*
X0051668Y0358972D02*
X0051668Y0359739D01*
X0051901Y0361635D02*
X0051901Y0364704D01*
X0053435Y0363170D02*
X0050366Y0363170D01*
X0028435Y0362670D02*
X0028435Y0361135D01*
X0027668Y0360368D01*
X0026133Y0360368D01*
X0025366Y0361135D01*
X0025366Y0362670D01*
X0026133Y0363437D01*
X0027668Y0363437D01*
X0028435Y0362670D01*
X0028435Y0356170D02*
X0025366Y0356170D01*
X0100169Y0356170D02*
X0103239Y0356170D01*
X0102471Y0360368D02*
X0103239Y0361135D01*
X0103239Y0362670D01*
X0102471Y0363437D01*
X0100937Y0363437D01*
X0100169Y0362670D01*
X0100169Y0361135D01*
X0100937Y0360368D01*
X0102471Y0360368D01*
X0125169Y0363170D02*
X0128239Y0363170D01*
X0126704Y0364704D02*
X0126704Y0361635D01*
X0126471Y0359739D02*
X0126471Y0358972D01*
X0126471Y0357437D02*
X0126471Y0354368D01*
X0125704Y0354368D02*
X0127239Y0354368D01*
X0126471Y0357437D02*
X0125704Y0357437D01*
X0144770Y0341984D02*
X0144770Y0340783D01*
X0145371Y0340183D01*
X0145371Y0338902D02*
X0144770Y0338301D01*
X0144770Y0337100D01*
X0145371Y0336500D01*
X0145971Y0336500D01*
X0146572Y0337100D01*
X0146572Y0338301D01*
X0147172Y0338902D01*
X0147773Y0338902D01*
X0148373Y0338301D01*
X0148373Y0337100D01*
X0147773Y0336500D01*
X0148373Y0340183D02*
X0145971Y0342585D01*
X0145371Y0342585D01*
X0144770Y0341984D01*
X0148373Y0342585D02*
X0148373Y0340183D01*
X0174972Y0356170D02*
X0178042Y0356170D01*
X0177274Y0360368D02*
X0178042Y0361135D01*
X0178042Y0362670D01*
X0177274Y0363437D01*
X0175740Y0363437D01*
X0174972Y0362670D01*
X0174972Y0361135D01*
X0175740Y0360368D01*
X0177274Y0360368D01*
X0199972Y0363170D02*
X0203042Y0363170D01*
X0201507Y0364704D02*
X0201507Y0361635D01*
X0201274Y0359739D02*
X0201274Y0358972D01*
X0201274Y0357437D02*
X0201274Y0354368D01*
X0200507Y0354368D02*
X0202042Y0354368D01*
X0201274Y0357437D02*
X0200507Y0357437D01*
X0219573Y0341984D02*
X0220174Y0342585D01*
X0220774Y0342585D01*
X0221375Y0341984D01*
X0221975Y0342585D01*
X0222576Y0342585D01*
X0223176Y0341984D01*
X0223176Y0340783D01*
X0222576Y0340183D01*
X0222576Y0338902D02*
X0223176Y0338301D01*
X0223176Y0337100D01*
X0222576Y0336500D01*
X0221375Y0337100D02*
X0221375Y0338301D01*
X0221975Y0338902D01*
X0222576Y0338902D01*
X0221375Y0337100D02*
X0220774Y0336500D01*
X0220174Y0336500D01*
X0219573Y0337100D01*
X0219573Y0338301D01*
X0220174Y0338902D01*
X0220174Y0340183D02*
X0219573Y0340783D01*
X0219573Y0341984D01*
X0221375Y0341984D02*
X0221375Y0341384D01*
X0231096Y0320377D02*
X0234165Y0317308D01*
X0233398Y0318075D02*
X0235700Y0320377D01*
X0235700Y0317308D02*
X0231096Y0317308D01*
X0231096Y0312704D02*
X0235700Y0312704D01*
X0235700Y0315773D01*
X0234933Y0311169D02*
X0235700Y0310402D01*
X0235700Y0308867D01*
X0234933Y0308100D01*
X0231863Y0308100D01*
X0231096Y0308867D01*
X0231096Y0310402D01*
X0231863Y0311169D01*
X0241096Y0310402D02*
X0241096Y0308100D01*
X0245700Y0308100D01*
X0245700Y0310402D01*
X0244933Y0311169D01*
X0241863Y0311169D01*
X0241096Y0310402D01*
X0241096Y0312704D02*
X0241096Y0314239D01*
X0241096Y0313471D02*
X0245700Y0313471D01*
X0245700Y0312704D02*
X0245700Y0314239D01*
X0244933Y0315773D02*
X0245700Y0316541D01*
X0245700Y0318075D01*
X0244933Y0318842D01*
X0241863Y0318842D01*
X0241096Y0318075D01*
X0241096Y0316541D01*
X0241863Y0315773D01*
X0244933Y0315773D01*
X0251096Y0315773D02*
X0255700Y0312704D01*
X0255700Y0315773D02*
X0251096Y0312704D01*
X0251096Y0311169D02*
X0251096Y0308100D01*
X0251096Y0309635D02*
X0255700Y0309635D01*
X0261096Y0310402D02*
X0261863Y0311169D01*
X0262631Y0311169D01*
X0263398Y0310402D01*
X0264165Y0311169D01*
X0264933Y0311169D01*
X0265700Y0310402D01*
X0265700Y0308867D01*
X0264933Y0308100D01*
X0263398Y0309635D02*
X0263398Y0310402D01*
X0261096Y0310402D02*
X0261096Y0308867D01*
X0261863Y0308100D01*
X0261096Y0312704D02*
X0264165Y0312704D01*
X0265700Y0314239D01*
X0264165Y0315773D01*
X0261096Y0315773D01*
X0261863Y0317308D02*
X0261096Y0318075D01*
X0261096Y0319610D01*
X0261863Y0320377D01*
X0262631Y0320377D01*
X0263398Y0319610D01*
X0264165Y0320377D01*
X0264933Y0320377D01*
X0265700Y0319610D01*
X0265700Y0318075D01*
X0264933Y0317308D01*
X0263398Y0318842D02*
X0263398Y0319610D01*
X0271096Y0319610D02*
X0271096Y0317308D01*
X0275700Y0317308D01*
X0275700Y0319610D01*
X0274933Y0320377D01*
X0271863Y0320377D01*
X0271096Y0319610D01*
X0271096Y0315773D02*
X0275700Y0315773D01*
X0271096Y0312704D01*
X0275700Y0312704D01*
X0274933Y0311169D02*
X0273398Y0311169D01*
X0273398Y0309635D01*
X0271863Y0311169D02*
X0271096Y0310402D01*
X0271096Y0308867D01*
X0271863Y0308100D01*
X0274933Y0308100D01*
X0275700Y0308867D01*
X0275700Y0310402D01*
X0274933Y0311169D01*
X0281898Y0339996D02*
X0281898Y0343065D01*
X0280363Y0341531D02*
X0283433Y0341531D01*
X0222576Y0267782D02*
X0221975Y0267782D01*
X0221375Y0267181D01*
X0221375Y0265380D01*
X0222576Y0265380D01*
X0223176Y0265980D01*
X0223176Y0267181D01*
X0222576Y0267782D01*
X0220174Y0266581D02*
X0221375Y0265380D01*
X0221975Y0264098D02*
X0221375Y0263498D01*
X0221375Y0262297D01*
X0220774Y0261696D01*
X0220174Y0261696D01*
X0219573Y0262297D01*
X0219573Y0263498D01*
X0220174Y0264098D01*
X0221975Y0264098D02*
X0222576Y0264098D01*
X0223176Y0263498D01*
X0223176Y0262297D01*
X0222576Y0261696D01*
X0220174Y0266581D02*
X0219573Y0267782D01*
X0204646Y0280332D02*
X0204646Y0281867D01*
X0203878Y0282634D01*
X0202344Y0282634D01*
X0201576Y0281867D01*
X0201576Y0280332D01*
X0202344Y0279565D01*
X0203878Y0279565D01*
X0204646Y0280332D01*
X0204646Y0288367D02*
X0201576Y0288367D01*
X0179111Y0285565D02*
X0177576Y0285565D01*
X0178344Y0285565D02*
X0178344Y0288634D01*
X0177576Y0288634D01*
X0178344Y0290168D02*
X0178344Y0290936D01*
X0178111Y0282901D02*
X0178111Y0279832D01*
X0176576Y0281367D02*
X0179646Y0281367D01*
X0148373Y0267181D02*
X0148373Y0265980D01*
X0147773Y0265380D01*
X0146572Y0265380D02*
X0145971Y0266581D01*
X0145971Y0267181D01*
X0146572Y0267782D01*
X0147773Y0267782D01*
X0148373Y0267181D01*
X0146572Y0265380D02*
X0144770Y0265380D01*
X0144770Y0267782D01*
X0145371Y0264098D02*
X0144770Y0263498D01*
X0144770Y0262297D01*
X0145371Y0261696D01*
X0145971Y0261696D01*
X0146572Y0262297D01*
X0146572Y0263498D01*
X0147172Y0264098D01*
X0147773Y0264098D01*
X0148373Y0263498D01*
X0148373Y0262297D01*
X0147773Y0261696D01*
X0129843Y0280332D02*
X0129843Y0281867D01*
X0129075Y0282634D01*
X0127541Y0282634D01*
X0126773Y0281867D01*
X0126773Y0280332D01*
X0127541Y0279565D01*
X0129075Y0279565D01*
X0129843Y0280332D01*
X0129843Y0288367D02*
X0126773Y0288367D01*
X0104308Y0285565D02*
X0102773Y0285565D01*
X0103541Y0285565D02*
X0103541Y0288634D01*
X0102773Y0288634D01*
X0103541Y0290168D02*
X0103541Y0290936D01*
X0103308Y0282901D02*
X0103308Y0279832D01*
X0101773Y0281367D02*
X0104843Y0281367D01*
X0102471Y0213831D02*
X0100937Y0213831D01*
X0100169Y0213063D01*
X0100169Y0211529D01*
X0100937Y0210761D01*
X0102471Y0210761D01*
X0103239Y0211529D01*
X0103239Y0213063D01*
X0102471Y0213831D01*
X0103239Y0206563D02*
X0100169Y0206563D01*
X0125704Y0207831D02*
X0126471Y0207831D01*
X0126471Y0204761D01*
X0125704Y0204761D02*
X0127239Y0204761D01*
X0126471Y0209365D02*
X0126471Y0210133D01*
X0126704Y0212029D02*
X0126704Y0215098D01*
X0125169Y0213563D02*
X0128239Y0213563D01*
X0145371Y0192978D02*
X0145971Y0192978D01*
X0146572Y0192378D01*
X0146572Y0191177D01*
X0145971Y0190576D01*
X0145371Y0190576D01*
X0144770Y0191177D01*
X0144770Y0192378D01*
X0145371Y0192978D01*
X0146572Y0192378D02*
X0147172Y0192978D01*
X0147773Y0192978D01*
X0148373Y0192378D01*
X0148373Y0191177D01*
X0147773Y0190576D01*
X0147172Y0190576D01*
X0146572Y0191177D01*
X0147172Y0189295D02*
X0147773Y0189295D01*
X0148373Y0188695D01*
X0148373Y0187494D01*
X0147773Y0186893D01*
X0146572Y0187494D02*
X0146572Y0188695D01*
X0147172Y0189295D01*
X0145371Y0189295D02*
X0144770Y0188695D01*
X0144770Y0187494D01*
X0145371Y0186893D01*
X0145971Y0186893D01*
X0146572Y0187494D01*
X0174972Y0206563D02*
X0178042Y0206563D01*
X0177274Y0210761D02*
X0178042Y0211529D01*
X0178042Y0213063D01*
X0177274Y0213831D01*
X0175740Y0213831D01*
X0174972Y0213063D01*
X0174972Y0211529D01*
X0175740Y0210761D01*
X0177274Y0210761D01*
X0199972Y0213563D02*
X0203042Y0213563D01*
X0201507Y0215098D02*
X0201507Y0212029D01*
X0201274Y0210133D02*
X0201274Y0209365D01*
X0201274Y0207831D02*
X0201274Y0204761D01*
X0200507Y0204761D02*
X0202042Y0204761D01*
X0201274Y0207831D02*
X0200507Y0207831D01*
X0219573Y0192378D02*
X0219573Y0191177D01*
X0220174Y0190576D01*
X0220774Y0190576D01*
X0221375Y0191177D01*
X0221375Y0192978D01*
X0222576Y0192978D02*
X0220174Y0192978D01*
X0219573Y0192378D01*
X0222576Y0192978D02*
X0223176Y0192378D01*
X0223176Y0191177D01*
X0222576Y0190576D01*
X0222576Y0189295D02*
X0223176Y0188695D01*
X0223176Y0187494D01*
X0222576Y0186893D01*
X0221375Y0187494D02*
X0221375Y0188695D01*
X0221975Y0189295D01*
X0222576Y0189295D01*
X0221375Y0187494D02*
X0220774Y0186893D01*
X0220174Y0186893D01*
X0219573Y0187494D01*
X0219573Y0188695D01*
X0220174Y0189295D01*
X0178344Y0141330D02*
X0178344Y0140562D01*
X0178344Y0139028D02*
X0178344Y0135958D01*
X0179111Y0135958D02*
X0177576Y0135958D01*
X0178111Y0133295D02*
X0178111Y0130226D01*
X0176576Y0131760D02*
X0179646Y0131760D01*
X0178344Y0139028D02*
X0177576Y0139028D01*
X0201576Y0138760D02*
X0204646Y0138760D01*
X0203878Y0133028D02*
X0202344Y0133028D01*
X0201576Y0132260D01*
X0201576Y0130726D01*
X0202344Y0129958D01*
X0203878Y0129958D01*
X0204646Y0130726D01*
X0204646Y0132260D01*
X0203878Y0133028D01*
X0219573Y0119416D02*
X0219573Y0118215D01*
X0220174Y0117615D01*
X0219573Y0119416D02*
X0220174Y0120017D01*
X0220774Y0120017D01*
X0223176Y0117615D01*
X0223176Y0120017D01*
X0223176Y0116334D02*
X0223176Y0113932D01*
X0223176Y0115133D02*
X0219573Y0115133D01*
X0220774Y0113932D01*
X0220174Y0112651D02*
X0219573Y0112050D01*
X0219573Y0110849D01*
X0220174Y0110249D01*
X0220774Y0110249D01*
X0221375Y0110849D01*
X0221375Y0112050D01*
X0221975Y0112651D01*
X0222576Y0112651D01*
X0223176Y0112050D01*
X0223176Y0110849D01*
X0222576Y0110249D01*
X0148373Y0110849D02*
X0147773Y0110249D01*
X0148373Y0110849D02*
X0148373Y0112050D01*
X0147773Y0112651D01*
X0147172Y0112651D01*
X0146572Y0112050D01*
X0146572Y0110849D01*
X0145971Y0110249D01*
X0145371Y0110249D01*
X0144770Y0110849D01*
X0144770Y0112050D01*
X0145371Y0112651D01*
X0145971Y0113932D02*
X0144770Y0115133D01*
X0148373Y0115133D01*
X0148373Y0113932D02*
X0148373Y0116334D01*
X0148373Y0117615D02*
X0148373Y0120017D01*
X0148373Y0118816D02*
X0144770Y0118816D01*
X0145971Y0117615D01*
X0129843Y0130726D02*
X0129843Y0132260D01*
X0129075Y0133028D01*
X0127541Y0133028D01*
X0126773Y0132260D01*
X0126773Y0130726D01*
X0127541Y0129958D01*
X0129075Y0129958D01*
X0129843Y0130726D01*
X0129843Y0138760D02*
X0126773Y0138760D01*
X0104308Y0135958D02*
X0102773Y0135958D01*
X0103541Y0135958D02*
X0103541Y0139028D01*
X0102773Y0139028D01*
X0103541Y0140562D02*
X0103541Y0141330D01*
X0103308Y0133295D02*
X0103308Y0130226D01*
X0101773Y0131760D02*
X0104843Y0131760D01*
D14*
X0016770Y0067270D02*
X0016770Y0014270D01*
X0064770Y0014270D01*
X0064770Y0067270D01*
X0016770Y0067270D01*
X0016770Y0089073D02*
X0016770Y0142073D01*
X0064770Y0142073D01*
X0064770Y0089073D01*
X0016770Y0089073D01*
X0016770Y0163876D02*
X0016770Y0216876D01*
X0064770Y0216876D01*
X0064770Y0163876D01*
X0016770Y0163876D01*
X0016770Y0238680D02*
X0016770Y0291680D01*
X0064770Y0291680D01*
X0064770Y0238680D01*
X0016770Y0238680D01*
X0016770Y0313483D02*
X0016770Y0366483D01*
X0064770Y0366483D01*
X0064770Y0313483D01*
X0016770Y0313483D01*
X0091573Y0313483D02*
X0091573Y0366483D01*
X0139573Y0366483D01*
X0139573Y0313483D01*
X0091573Y0313483D01*
X0091573Y0291680D02*
X0139573Y0291680D01*
X0139573Y0238680D01*
X0091573Y0238680D01*
X0091573Y0291680D01*
X0091573Y0216876D02*
X0139573Y0216876D01*
X0139573Y0163876D01*
X0091573Y0163876D01*
X0091573Y0216876D01*
X0091573Y0142073D02*
X0139573Y0142073D01*
X0139573Y0089073D01*
X0091573Y0089073D01*
X0091573Y0142073D01*
X0091573Y0067270D02*
X0139573Y0067270D01*
X0139573Y0014270D01*
X0091573Y0014270D01*
X0091573Y0067270D01*
X0166376Y0067270D02*
X0166376Y0014270D01*
X0214376Y0014270D01*
X0214376Y0067270D01*
X0166376Y0067270D01*
X0166376Y0089073D02*
X0166376Y0142073D01*
X0214376Y0142073D01*
X0214376Y0089073D01*
X0166376Y0089073D01*
X0166376Y0163876D02*
X0166376Y0216876D01*
X0214376Y0216876D01*
X0214376Y0163876D01*
X0166376Y0163876D01*
X0166376Y0238680D02*
X0166376Y0291680D01*
X0214376Y0291680D01*
X0214376Y0238680D01*
X0166376Y0238680D01*
X0166376Y0313483D02*
X0166376Y0366483D01*
X0214376Y0366483D01*
X0214376Y0313483D01*
X0166376Y0313483D01*
X0239983Y0362227D02*
X0239983Y0368526D01*
X0244707Y0367739D02*
X0244707Y0362227D01*
X0239983Y0362227D01*
X0244707Y0367739D02*
X0262030Y0367739D01*
X0262030Y0362227D01*
X0266754Y0362227D01*
X0266754Y0368526D01*
X0266754Y0379156D02*
X0239983Y0379156D01*
X0291361Y0364983D02*
X0306361Y0364983D01*
X0291361Y0364983D02*
X0291361Y0314983D01*
X0306361Y0314983D01*
X0326361Y0314983D02*
X0341361Y0314983D01*
X0341361Y0324983D01*
X0341361Y0334983D02*
X0341361Y0344983D01*
X0341361Y0354983D02*
X0341361Y0364983D01*
X0326361Y0364983D01*
X0259431Y0216124D02*
X0247306Y0216124D01*
X0243369Y0211124D02*
X0243369Y0201243D01*
X0247306Y0196124D02*
X0259431Y0196124D01*
X0263369Y0201243D02*
X0263369Y0211006D01*
X0248369Y0206124D02*
X0248371Y0206265D01*
X0248377Y0206406D01*
X0248387Y0206546D01*
X0248401Y0206686D01*
X0248419Y0206826D01*
X0248440Y0206965D01*
X0248466Y0207104D01*
X0248495Y0207242D01*
X0248529Y0207378D01*
X0248566Y0207514D01*
X0248607Y0207649D01*
X0248652Y0207783D01*
X0248701Y0207915D01*
X0248753Y0208046D01*
X0248809Y0208175D01*
X0248869Y0208302D01*
X0248932Y0208428D01*
X0248998Y0208552D01*
X0249069Y0208675D01*
X0249142Y0208795D01*
X0249219Y0208913D01*
X0249299Y0209029D01*
X0249383Y0209142D01*
X0249469Y0209253D01*
X0249559Y0209362D01*
X0249652Y0209468D01*
X0249747Y0209571D01*
X0249846Y0209672D01*
X0249947Y0209770D01*
X0250051Y0209865D01*
X0250158Y0209957D01*
X0250267Y0210046D01*
X0250379Y0210131D01*
X0250493Y0210214D01*
X0250609Y0210294D01*
X0250728Y0210370D01*
X0250849Y0210442D01*
X0250971Y0210512D01*
X0251096Y0210577D01*
X0251222Y0210640D01*
X0251350Y0210698D01*
X0251480Y0210753D01*
X0251611Y0210805D01*
X0251744Y0210852D01*
X0251878Y0210896D01*
X0252013Y0210937D01*
X0252149Y0210973D01*
X0252286Y0211005D01*
X0252424Y0211034D01*
X0252562Y0211059D01*
X0252702Y0211079D01*
X0252842Y0211096D01*
X0252982Y0211109D01*
X0253123Y0211118D01*
X0253263Y0211123D01*
X0253404Y0211124D01*
X0253545Y0211121D01*
X0253686Y0211114D01*
X0253826Y0211103D01*
X0253966Y0211088D01*
X0254106Y0211069D01*
X0254245Y0211047D01*
X0254383Y0211020D01*
X0254521Y0210990D01*
X0254657Y0210955D01*
X0254793Y0210917D01*
X0254927Y0210875D01*
X0255061Y0210829D01*
X0255193Y0210780D01*
X0255323Y0210726D01*
X0255452Y0210669D01*
X0255579Y0210609D01*
X0255705Y0210545D01*
X0255828Y0210477D01*
X0255950Y0210406D01*
X0256070Y0210332D01*
X0256187Y0210254D01*
X0256302Y0210173D01*
X0256415Y0210089D01*
X0256526Y0210002D01*
X0256634Y0209911D01*
X0256739Y0209818D01*
X0256842Y0209721D01*
X0256942Y0209622D01*
X0257039Y0209520D01*
X0257133Y0209415D01*
X0257224Y0209308D01*
X0257312Y0209198D01*
X0257397Y0209086D01*
X0257479Y0208971D01*
X0257558Y0208854D01*
X0257633Y0208735D01*
X0257705Y0208614D01*
X0257773Y0208491D01*
X0257838Y0208366D01*
X0257900Y0208239D01*
X0257957Y0208110D01*
X0258012Y0207980D01*
X0258062Y0207849D01*
X0258109Y0207716D01*
X0258152Y0207582D01*
X0258191Y0207446D01*
X0258226Y0207310D01*
X0258258Y0207173D01*
X0258285Y0207035D01*
X0258309Y0206896D01*
X0258329Y0206756D01*
X0258345Y0206616D01*
X0258357Y0206476D01*
X0258365Y0206335D01*
X0258369Y0206194D01*
X0258369Y0206054D01*
X0258365Y0205913D01*
X0258357Y0205772D01*
X0258345Y0205632D01*
X0258329Y0205492D01*
X0258309Y0205352D01*
X0258285Y0205213D01*
X0258258Y0205075D01*
X0258226Y0204938D01*
X0258191Y0204802D01*
X0258152Y0204666D01*
X0258109Y0204532D01*
X0258062Y0204399D01*
X0258012Y0204268D01*
X0257957Y0204138D01*
X0257900Y0204009D01*
X0257838Y0203882D01*
X0257773Y0203757D01*
X0257705Y0203634D01*
X0257633Y0203513D01*
X0257558Y0203394D01*
X0257479Y0203277D01*
X0257397Y0203162D01*
X0257312Y0203050D01*
X0257224Y0202940D01*
X0257133Y0202833D01*
X0257039Y0202728D01*
X0256942Y0202626D01*
X0256842Y0202527D01*
X0256739Y0202430D01*
X0256634Y0202337D01*
X0256526Y0202246D01*
X0256415Y0202159D01*
X0256302Y0202075D01*
X0256187Y0201994D01*
X0256070Y0201916D01*
X0255950Y0201842D01*
X0255828Y0201771D01*
X0255705Y0201703D01*
X0255579Y0201639D01*
X0255452Y0201579D01*
X0255323Y0201522D01*
X0255193Y0201468D01*
X0255061Y0201419D01*
X0254927Y0201373D01*
X0254793Y0201331D01*
X0254657Y0201293D01*
X0254521Y0201258D01*
X0254383Y0201228D01*
X0254245Y0201201D01*
X0254106Y0201179D01*
X0253966Y0201160D01*
X0253826Y0201145D01*
X0253686Y0201134D01*
X0253545Y0201127D01*
X0253404Y0201124D01*
X0253263Y0201125D01*
X0253123Y0201130D01*
X0252982Y0201139D01*
X0252842Y0201152D01*
X0252702Y0201169D01*
X0252562Y0201189D01*
X0252424Y0201214D01*
X0252286Y0201243D01*
X0252149Y0201275D01*
X0252013Y0201311D01*
X0251878Y0201352D01*
X0251744Y0201396D01*
X0251611Y0201443D01*
X0251480Y0201495D01*
X0251350Y0201550D01*
X0251222Y0201608D01*
X0251096Y0201671D01*
X0250971Y0201736D01*
X0250849Y0201806D01*
X0250728Y0201878D01*
X0250609Y0201954D01*
X0250493Y0202034D01*
X0250379Y0202117D01*
X0250267Y0202202D01*
X0250158Y0202291D01*
X0250051Y0202383D01*
X0249947Y0202478D01*
X0249846Y0202576D01*
X0249747Y0202677D01*
X0249652Y0202780D01*
X0249559Y0202886D01*
X0249469Y0202995D01*
X0249383Y0203106D01*
X0249299Y0203219D01*
X0249219Y0203335D01*
X0249142Y0203453D01*
X0249069Y0203573D01*
X0248998Y0203696D01*
X0248932Y0203820D01*
X0248869Y0203946D01*
X0248809Y0204073D01*
X0248753Y0204202D01*
X0248701Y0204333D01*
X0248652Y0204465D01*
X0248607Y0204599D01*
X0248566Y0204734D01*
X0248529Y0204870D01*
X0248495Y0205006D01*
X0248466Y0205144D01*
X0248440Y0205283D01*
X0248419Y0205422D01*
X0248401Y0205562D01*
X0248387Y0205702D01*
X0248377Y0205842D01*
X0248371Y0205983D01*
X0248369Y0206124D01*
X0247306Y0184628D02*
X0259431Y0184628D01*
X0263369Y0179510D02*
X0263369Y0169746D01*
X0259431Y0164628D02*
X0247306Y0164628D01*
X0243369Y0169746D02*
X0243369Y0179628D01*
X0248369Y0174628D02*
X0248371Y0174769D01*
X0248377Y0174910D01*
X0248387Y0175050D01*
X0248401Y0175190D01*
X0248419Y0175330D01*
X0248440Y0175469D01*
X0248466Y0175608D01*
X0248495Y0175746D01*
X0248529Y0175882D01*
X0248566Y0176018D01*
X0248607Y0176153D01*
X0248652Y0176287D01*
X0248701Y0176419D01*
X0248753Y0176550D01*
X0248809Y0176679D01*
X0248869Y0176806D01*
X0248932Y0176932D01*
X0248998Y0177056D01*
X0249069Y0177179D01*
X0249142Y0177299D01*
X0249219Y0177417D01*
X0249299Y0177533D01*
X0249383Y0177646D01*
X0249469Y0177757D01*
X0249559Y0177866D01*
X0249652Y0177972D01*
X0249747Y0178075D01*
X0249846Y0178176D01*
X0249947Y0178274D01*
X0250051Y0178369D01*
X0250158Y0178461D01*
X0250267Y0178550D01*
X0250379Y0178635D01*
X0250493Y0178718D01*
X0250609Y0178798D01*
X0250728Y0178874D01*
X0250849Y0178946D01*
X0250971Y0179016D01*
X0251096Y0179081D01*
X0251222Y0179144D01*
X0251350Y0179202D01*
X0251480Y0179257D01*
X0251611Y0179309D01*
X0251744Y0179356D01*
X0251878Y0179400D01*
X0252013Y0179441D01*
X0252149Y0179477D01*
X0252286Y0179509D01*
X0252424Y0179538D01*
X0252562Y0179563D01*
X0252702Y0179583D01*
X0252842Y0179600D01*
X0252982Y0179613D01*
X0253123Y0179622D01*
X0253263Y0179627D01*
X0253404Y0179628D01*
X0253545Y0179625D01*
X0253686Y0179618D01*
X0253826Y0179607D01*
X0253966Y0179592D01*
X0254106Y0179573D01*
X0254245Y0179551D01*
X0254383Y0179524D01*
X0254521Y0179494D01*
X0254657Y0179459D01*
X0254793Y0179421D01*
X0254927Y0179379D01*
X0255061Y0179333D01*
X0255193Y0179284D01*
X0255323Y0179230D01*
X0255452Y0179173D01*
X0255579Y0179113D01*
X0255705Y0179049D01*
X0255828Y0178981D01*
X0255950Y0178910D01*
X0256070Y0178836D01*
X0256187Y0178758D01*
X0256302Y0178677D01*
X0256415Y0178593D01*
X0256526Y0178506D01*
X0256634Y0178415D01*
X0256739Y0178322D01*
X0256842Y0178225D01*
X0256942Y0178126D01*
X0257039Y0178024D01*
X0257133Y0177919D01*
X0257224Y0177812D01*
X0257312Y0177702D01*
X0257397Y0177590D01*
X0257479Y0177475D01*
X0257558Y0177358D01*
X0257633Y0177239D01*
X0257705Y0177118D01*
X0257773Y0176995D01*
X0257838Y0176870D01*
X0257900Y0176743D01*
X0257957Y0176614D01*
X0258012Y0176484D01*
X0258062Y0176353D01*
X0258109Y0176220D01*
X0258152Y0176086D01*
X0258191Y0175950D01*
X0258226Y0175814D01*
X0258258Y0175677D01*
X0258285Y0175539D01*
X0258309Y0175400D01*
X0258329Y0175260D01*
X0258345Y0175120D01*
X0258357Y0174980D01*
X0258365Y0174839D01*
X0258369Y0174698D01*
X0258369Y0174558D01*
X0258365Y0174417D01*
X0258357Y0174276D01*
X0258345Y0174136D01*
X0258329Y0173996D01*
X0258309Y0173856D01*
X0258285Y0173717D01*
X0258258Y0173579D01*
X0258226Y0173442D01*
X0258191Y0173306D01*
X0258152Y0173170D01*
X0258109Y0173036D01*
X0258062Y0172903D01*
X0258012Y0172772D01*
X0257957Y0172642D01*
X0257900Y0172513D01*
X0257838Y0172386D01*
X0257773Y0172261D01*
X0257705Y0172138D01*
X0257633Y0172017D01*
X0257558Y0171898D01*
X0257479Y0171781D01*
X0257397Y0171666D01*
X0257312Y0171554D01*
X0257224Y0171444D01*
X0257133Y0171337D01*
X0257039Y0171232D01*
X0256942Y0171130D01*
X0256842Y0171031D01*
X0256739Y0170934D01*
X0256634Y0170841D01*
X0256526Y0170750D01*
X0256415Y0170663D01*
X0256302Y0170579D01*
X0256187Y0170498D01*
X0256070Y0170420D01*
X0255950Y0170346D01*
X0255828Y0170275D01*
X0255705Y0170207D01*
X0255579Y0170143D01*
X0255452Y0170083D01*
X0255323Y0170026D01*
X0255193Y0169972D01*
X0255061Y0169923D01*
X0254927Y0169877D01*
X0254793Y0169835D01*
X0254657Y0169797D01*
X0254521Y0169762D01*
X0254383Y0169732D01*
X0254245Y0169705D01*
X0254106Y0169683D01*
X0253966Y0169664D01*
X0253826Y0169649D01*
X0253686Y0169638D01*
X0253545Y0169631D01*
X0253404Y0169628D01*
X0253263Y0169629D01*
X0253123Y0169634D01*
X0252982Y0169643D01*
X0252842Y0169656D01*
X0252702Y0169673D01*
X0252562Y0169693D01*
X0252424Y0169718D01*
X0252286Y0169747D01*
X0252149Y0169779D01*
X0252013Y0169815D01*
X0251878Y0169856D01*
X0251744Y0169900D01*
X0251611Y0169947D01*
X0251480Y0169999D01*
X0251350Y0170054D01*
X0251222Y0170112D01*
X0251096Y0170175D01*
X0250971Y0170240D01*
X0250849Y0170310D01*
X0250728Y0170382D01*
X0250609Y0170458D01*
X0250493Y0170538D01*
X0250379Y0170621D01*
X0250267Y0170706D01*
X0250158Y0170795D01*
X0250051Y0170887D01*
X0249947Y0170982D01*
X0249846Y0171080D01*
X0249747Y0171181D01*
X0249652Y0171284D01*
X0249559Y0171390D01*
X0249469Y0171499D01*
X0249383Y0171610D01*
X0249299Y0171723D01*
X0249219Y0171839D01*
X0249142Y0171957D01*
X0249069Y0172077D01*
X0248998Y0172200D01*
X0248932Y0172324D01*
X0248869Y0172450D01*
X0248809Y0172577D01*
X0248753Y0172706D01*
X0248701Y0172837D01*
X0248652Y0172969D01*
X0248607Y0173103D01*
X0248566Y0173238D01*
X0248529Y0173374D01*
X0248495Y0173510D01*
X0248466Y0173648D01*
X0248440Y0173787D01*
X0248419Y0173926D01*
X0248401Y0174066D01*
X0248387Y0174206D01*
X0248377Y0174346D01*
X0248371Y0174487D01*
X0248369Y0174628D01*
X0291361Y0165376D02*
X0291361Y0215376D01*
X0306361Y0215376D01*
X0326361Y0215376D02*
X0341361Y0215376D01*
X0341361Y0205376D01*
X0341361Y0195376D02*
X0341361Y0185376D01*
X0341361Y0175376D02*
X0341361Y0165376D01*
X0326361Y0165376D01*
X0306361Y0165376D02*
X0291361Y0165376D01*
X0310298Y0044928D02*
X0322424Y0044928D01*
X0326361Y0039809D02*
X0326361Y0030046D01*
X0322424Y0024928D02*
X0310298Y0024928D01*
X0306361Y0030046D02*
X0306361Y0039928D01*
X0311361Y0034928D02*
X0311363Y0035069D01*
X0311369Y0035210D01*
X0311379Y0035350D01*
X0311393Y0035490D01*
X0311411Y0035630D01*
X0311432Y0035769D01*
X0311458Y0035908D01*
X0311487Y0036046D01*
X0311521Y0036182D01*
X0311558Y0036318D01*
X0311599Y0036453D01*
X0311644Y0036587D01*
X0311693Y0036719D01*
X0311745Y0036850D01*
X0311801Y0036979D01*
X0311861Y0037106D01*
X0311924Y0037232D01*
X0311990Y0037356D01*
X0312061Y0037479D01*
X0312134Y0037599D01*
X0312211Y0037717D01*
X0312291Y0037833D01*
X0312375Y0037946D01*
X0312461Y0038057D01*
X0312551Y0038166D01*
X0312644Y0038272D01*
X0312739Y0038375D01*
X0312838Y0038476D01*
X0312939Y0038574D01*
X0313043Y0038669D01*
X0313150Y0038761D01*
X0313259Y0038850D01*
X0313371Y0038935D01*
X0313485Y0039018D01*
X0313601Y0039098D01*
X0313720Y0039174D01*
X0313841Y0039246D01*
X0313963Y0039316D01*
X0314088Y0039381D01*
X0314214Y0039444D01*
X0314342Y0039502D01*
X0314472Y0039557D01*
X0314603Y0039609D01*
X0314736Y0039656D01*
X0314870Y0039700D01*
X0315005Y0039741D01*
X0315141Y0039777D01*
X0315278Y0039809D01*
X0315416Y0039838D01*
X0315554Y0039863D01*
X0315694Y0039883D01*
X0315834Y0039900D01*
X0315974Y0039913D01*
X0316115Y0039922D01*
X0316255Y0039927D01*
X0316396Y0039928D01*
X0316537Y0039925D01*
X0316678Y0039918D01*
X0316818Y0039907D01*
X0316958Y0039892D01*
X0317098Y0039873D01*
X0317237Y0039851D01*
X0317375Y0039824D01*
X0317513Y0039794D01*
X0317649Y0039759D01*
X0317785Y0039721D01*
X0317919Y0039679D01*
X0318053Y0039633D01*
X0318185Y0039584D01*
X0318315Y0039530D01*
X0318444Y0039473D01*
X0318571Y0039413D01*
X0318697Y0039349D01*
X0318820Y0039281D01*
X0318942Y0039210D01*
X0319062Y0039136D01*
X0319179Y0039058D01*
X0319294Y0038977D01*
X0319407Y0038893D01*
X0319518Y0038806D01*
X0319626Y0038715D01*
X0319731Y0038622D01*
X0319834Y0038525D01*
X0319934Y0038426D01*
X0320031Y0038324D01*
X0320125Y0038219D01*
X0320216Y0038112D01*
X0320304Y0038002D01*
X0320389Y0037890D01*
X0320471Y0037775D01*
X0320550Y0037658D01*
X0320625Y0037539D01*
X0320697Y0037418D01*
X0320765Y0037295D01*
X0320830Y0037170D01*
X0320892Y0037043D01*
X0320949Y0036914D01*
X0321004Y0036784D01*
X0321054Y0036653D01*
X0321101Y0036520D01*
X0321144Y0036386D01*
X0321183Y0036250D01*
X0321218Y0036114D01*
X0321250Y0035977D01*
X0321277Y0035839D01*
X0321301Y0035700D01*
X0321321Y0035560D01*
X0321337Y0035420D01*
X0321349Y0035280D01*
X0321357Y0035139D01*
X0321361Y0034998D01*
X0321361Y0034858D01*
X0321357Y0034717D01*
X0321349Y0034576D01*
X0321337Y0034436D01*
X0321321Y0034296D01*
X0321301Y0034156D01*
X0321277Y0034017D01*
X0321250Y0033879D01*
X0321218Y0033742D01*
X0321183Y0033606D01*
X0321144Y0033470D01*
X0321101Y0033336D01*
X0321054Y0033203D01*
X0321004Y0033072D01*
X0320949Y0032942D01*
X0320892Y0032813D01*
X0320830Y0032686D01*
X0320765Y0032561D01*
X0320697Y0032438D01*
X0320625Y0032317D01*
X0320550Y0032198D01*
X0320471Y0032081D01*
X0320389Y0031966D01*
X0320304Y0031854D01*
X0320216Y0031744D01*
X0320125Y0031637D01*
X0320031Y0031532D01*
X0319934Y0031430D01*
X0319834Y0031331D01*
X0319731Y0031234D01*
X0319626Y0031141D01*
X0319518Y0031050D01*
X0319407Y0030963D01*
X0319294Y0030879D01*
X0319179Y0030798D01*
X0319062Y0030720D01*
X0318942Y0030646D01*
X0318820Y0030575D01*
X0318697Y0030507D01*
X0318571Y0030443D01*
X0318444Y0030383D01*
X0318315Y0030326D01*
X0318185Y0030272D01*
X0318053Y0030223D01*
X0317919Y0030177D01*
X0317785Y0030135D01*
X0317649Y0030097D01*
X0317513Y0030062D01*
X0317375Y0030032D01*
X0317237Y0030005D01*
X0317098Y0029983D01*
X0316958Y0029964D01*
X0316818Y0029949D01*
X0316678Y0029938D01*
X0316537Y0029931D01*
X0316396Y0029928D01*
X0316255Y0029929D01*
X0316115Y0029934D01*
X0315974Y0029943D01*
X0315834Y0029956D01*
X0315694Y0029973D01*
X0315554Y0029993D01*
X0315416Y0030018D01*
X0315278Y0030047D01*
X0315141Y0030079D01*
X0315005Y0030115D01*
X0314870Y0030156D01*
X0314736Y0030200D01*
X0314603Y0030247D01*
X0314472Y0030299D01*
X0314342Y0030354D01*
X0314214Y0030412D01*
X0314088Y0030475D01*
X0313963Y0030540D01*
X0313841Y0030610D01*
X0313720Y0030682D01*
X0313601Y0030758D01*
X0313485Y0030838D01*
X0313371Y0030921D01*
X0313259Y0031006D01*
X0313150Y0031095D01*
X0313043Y0031187D01*
X0312939Y0031282D01*
X0312838Y0031380D01*
X0312739Y0031481D01*
X0312644Y0031584D01*
X0312551Y0031690D01*
X0312461Y0031799D01*
X0312375Y0031910D01*
X0312291Y0032023D01*
X0312211Y0032139D01*
X0312134Y0032257D01*
X0312061Y0032377D01*
X0311990Y0032500D01*
X0311924Y0032624D01*
X0311861Y0032750D01*
X0311801Y0032877D01*
X0311745Y0033006D01*
X0311693Y0033137D01*
X0311644Y0033269D01*
X0311599Y0033403D01*
X0311558Y0033538D01*
X0311521Y0033674D01*
X0311487Y0033810D01*
X0311458Y0033948D01*
X0311432Y0034087D01*
X0311411Y0034226D01*
X0311393Y0034366D01*
X0311379Y0034506D01*
X0311369Y0034646D01*
X0311363Y0034787D01*
X0311361Y0034928D01*
X0267306Y0039809D02*
X0267306Y0030046D01*
X0263369Y0024928D02*
X0251243Y0024928D01*
X0247306Y0030046D02*
X0247306Y0039928D01*
X0251243Y0044928D02*
X0263369Y0044928D01*
X0252306Y0034928D02*
X0252308Y0035069D01*
X0252314Y0035210D01*
X0252324Y0035350D01*
X0252338Y0035490D01*
X0252356Y0035630D01*
X0252377Y0035769D01*
X0252403Y0035908D01*
X0252432Y0036046D01*
X0252466Y0036182D01*
X0252503Y0036318D01*
X0252544Y0036453D01*
X0252589Y0036587D01*
X0252638Y0036719D01*
X0252690Y0036850D01*
X0252746Y0036979D01*
X0252806Y0037106D01*
X0252869Y0037232D01*
X0252935Y0037356D01*
X0253006Y0037479D01*
X0253079Y0037599D01*
X0253156Y0037717D01*
X0253236Y0037833D01*
X0253320Y0037946D01*
X0253406Y0038057D01*
X0253496Y0038166D01*
X0253589Y0038272D01*
X0253684Y0038375D01*
X0253783Y0038476D01*
X0253884Y0038574D01*
X0253988Y0038669D01*
X0254095Y0038761D01*
X0254204Y0038850D01*
X0254316Y0038935D01*
X0254430Y0039018D01*
X0254546Y0039098D01*
X0254665Y0039174D01*
X0254786Y0039246D01*
X0254908Y0039316D01*
X0255033Y0039381D01*
X0255159Y0039444D01*
X0255287Y0039502D01*
X0255417Y0039557D01*
X0255548Y0039609D01*
X0255681Y0039656D01*
X0255815Y0039700D01*
X0255950Y0039741D01*
X0256086Y0039777D01*
X0256223Y0039809D01*
X0256361Y0039838D01*
X0256499Y0039863D01*
X0256639Y0039883D01*
X0256779Y0039900D01*
X0256919Y0039913D01*
X0257060Y0039922D01*
X0257200Y0039927D01*
X0257341Y0039928D01*
X0257482Y0039925D01*
X0257623Y0039918D01*
X0257763Y0039907D01*
X0257903Y0039892D01*
X0258043Y0039873D01*
X0258182Y0039851D01*
X0258320Y0039824D01*
X0258458Y0039794D01*
X0258594Y0039759D01*
X0258730Y0039721D01*
X0258864Y0039679D01*
X0258998Y0039633D01*
X0259130Y0039584D01*
X0259260Y0039530D01*
X0259389Y0039473D01*
X0259516Y0039413D01*
X0259642Y0039349D01*
X0259765Y0039281D01*
X0259887Y0039210D01*
X0260007Y0039136D01*
X0260124Y0039058D01*
X0260239Y0038977D01*
X0260352Y0038893D01*
X0260463Y0038806D01*
X0260571Y0038715D01*
X0260676Y0038622D01*
X0260779Y0038525D01*
X0260879Y0038426D01*
X0260976Y0038324D01*
X0261070Y0038219D01*
X0261161Y0038112D01*
X0261249Y0038002D01*
X0261334Y0037890D01*
X0261416Y0037775D01*
X0261495Y0037658D01*
X0261570Y0037539D01*
X0261642Y0037418D01*
X0261710Y0037295D01*
X0261775Y0037170D01*
X0261837Y0037043D01*
X0261894Y0036914D01*
X0261949Y0036784D01*
X0261999Y0036653D01*
X0262046Y0036520D01*
X0262089Y0036386D01*
X0262128Y0036250D01*
X0262163Y0036114D01*
X0262195Y0035977D01*
X0262222Y0035839D01*
X0262246Y0035700D01*
X0262266Y0035560D01*
X0262282Y0035420D01*
X0262294Y0035280D01*
X0262302Y0035139D01*
X0262306Y0034998D01*
X0262306Y0034858D01*
X0262302Y0034717D01*
X0262294Y0034576D01*
X0262282Y0034436D01*
X0262266Y0034296D01*
X0262246Y0034156D01*
X0262222Y0034017D01*
X0262195Y0033879D01*
X0262163Y0033742D01*
X0262128Y0033606D01*
X0262089Y0033470D01*
X0262046Y0033336D01*
X0261999Y0033203D01*
X0261949Y0033072D01*
X0261894Y0032942D01*
X0261837Y0032813D01*
X0261775Y0032686D01*
X0261710Y0032561D01*
X0261642Y0032438D01*
X0261570Y0032317D01*
X0261495Y0032198D01*
X0261416Y0032081D01*
X0261334Y0031966D01*
X0261249Y0031854D01*
X0261161Y0031744D01*
X0261070Y0031637D01*
X0260976Y0031532D01*
X0260879Y0031430D01*
X0260779Y0031331D01*
X0260676Y0031234D01*
X0260571Y0031141D01*
X0260463Y0031050D01*
X0260352Y0030963D01*
X0260239Y0030879D01*
X0260124Y0030798D01*
X0260007Y0030720D01*
X0259887Y0030646D01*
X0259765Y0030575D01*
X0259642Y0030507D01*
X0259516Y0030443D01*
X0259389Y0030383D01*
X0259260Y0030326D01*
X0259130Y0030272D01*
X0258998Y0030223D01*
X0258864Y0030177D01*
X0258730Y0030135D01*
X0258594Y0030097D01*
X0258458Y0030062D01*
X0258320Y0030032D01*
X0258182Y0030005D01*
X0258043Y0029983D01*
X0257903Y0029964D01*
X0257763Y0029949D01*
X0257623Y0029938D01*
X0257482Y0029931D01*
X0257341Y0029928D01*
X0257200Y0029929D01*
X0257060Y0029934D01*
X0256919Y0029943D01*
X0256779Y0029956D01*
X0256639Y0029973D01*
X0256499Y0029993D01*
X0256361Y0030018D01*
X0256223Y0030047D01*
X0256086Y0030079D01*
X0255950Y0030115D01*
X0255815Y0030156D01*
X0255681Y0030200D01*
X0255548Y0030247D01*
X0255417Y0030299D01*
X0255287Y0030354D01*
X0255159Y0030412D01*
X0255033Y0030475D01*
X0254908Y0030540D01*
X0254786Y0030610D01*
X0254665Y0030682D01*
X0254546Y0030758D01*
X0254430Y0030838D01*
X0254316Y0030921D01*
X0254204Y0031006D01*
X0254095Y0031095D01*
X0253988Y0031187D01*
X0253884Y0031282D01*
X0253783Y0031380D01*
X0253684Y0031481D01*
X0253589Y0031584D01*
X0253496Y0031690D01*
X0253406Y0031799D01*
X0253320Y0031910D01*
X0253236Y0032023D01*
X0253156Y0032139D01*
X0253079Y0032257D01*
X0253006Y0032377D01*
X0252935Y0032500D01*
X0252869Y0032624D01*
X0252806Y0032750D01*
X0252746Y0032877D01*
X0252690Y0033006D01*
X0252638Y0033137D01*
X0252589Y0033269D01*
X0252544Y0033403D01*
X0252503Y0033538D01*
X0252466Y0033674D01*
X0252432Y0033810D01*
X0252403Y0033948D01*
X0252377Y0034087D01*
X0252356Y0034226D01*
X0252338Y0034366D01*
X0252324Y0034506D01*
X0252314Y0034646D01*
X0252308Y0034787D01*
X0252306Y0034928D01*
D15*
X0234274Y0068723D02*
X0234262Y0144550D01*
X0339392Y0144550D01*
X0339392Y0068723D01*
X0234274Y0068723D01*
X0197266Y0067345D02*
X0197266Y0053565D01*
X0183487Y0053565D01*
X0183487Y0067345D01*
X0197266Y0067345D01*
X0197266Y0128369D02*
X0183487Y0128369D01*
X0183487Y0142148D01*
X0197266Y0142148D01*
X0197266Y0128369D01*
X0197266Y0203172D02*
X0183487Y0203172D01*
X0183487Y0216951D01*
X0197266Y0216951D01*
X0197266Y0203172D01*
X0197266Y0277975D02*
X0183487Y0277975D01*
X0183487Y0291754D01*
X0197266Y0291754D01*
X0197266Y0277975D01*
X0220209Y0348550D02*
X0220209Y0354850D01*
X0231391Y0354850D02*
X0231391Y0348550D01*
X0197266Y0352778D02*
X0197266Y0366557D01*
X0183487Y0366557D01*
X0183487Y0352778D01*
X0197266Y0352778D01*
X0122463Y0352778D02*
X0122463Y0366557D01*
X0108683Y0366557D01*
X0108683Y0352778D01*
X0122463Y0352778D01*
X0122463Y0291754D02*
X0108683Y0291754D01*
X0108683Y0277975D01*
X0122463Y0277975D01*
X0122463Y0291754D01*
X0122463Y0216951D02*
X0108683Y0216951D01*
X0108683Y0203172D01*
X0122463Y0203172D01*
X0122463Y0216951D01*
X0122463Y0142148D02*
X0108683Y0142148D01*
X0108683Y0128369D01*
X0122463Y0128369D01*
X0122463Y0142148D01*
X0122463Y0067345D02*
X0108683Y0067345D01*
X0108683Y0053565D01*
X0122463Y0053565D01*
X0122463Y0067345D01*
X0047660Y0067345D02*
X0047660Y0053565D01*
X0033880Y0053565D01*
X0033880Y0067345D01*
X0047660Y0067345D01*
X0047660Y0128369D02*
X0033880Y0128369D01*
X0033880Y0142148D01*
X0047660Y0142148D01*
X0047660Y0128369D01*
X0047660Y0203172D02*
X0033880Y0203172D01*
X0033880Y0216951D01*
X0047660Y0216951D01*
X0047660Y0203172D01*
X0047660Y0277975D02*
X0033880Y0277975D01*
X0033880Y0291754D01*
X0047660Y0291754D01*
X0047660Y0277975D01*
X0047660Y0352778D02*
X0033880Y0352778D01*
X0033880Y0366557D01*
X0047660Y0366557D01*
X0047660Y0352778D01*
X0270665Y0227745D02*
X0271083Y0228163D01*
X0276428Y0227773D02*
X0284668Y0219533D01*
X0284084Y0218948D01*
X0279852Y0214716D02*
X0279212Y0214076D01*
X0270888Y0222400D01*
X0295691Y0236046D02*
X0295691Y0289195D01*
X0301400Y0289195D01*
X0301400Y0294313D01*
X0353959Y0294313D01*
X0353959Y0282502D01*
X0350809Y0270691D01*
X0350809Y0236046D01*
X0295691Y0236046D01*
D16*
X0288909Y0232228D02*
X0288567Y0231886D01*
X0285831Y0231886D01*
X0285489Y0231544D01*
X0284773Y0232259D02*
X0283405Y0233627D01*
X0284089Y0232943D02*
X0286142Y0234996D01*
X0284773Y0234996D01*
X0283716Y0235369D02*
X0283032Y0235369D01*
X0282006Y0236395D01*
X0282690Y0235711D02*
X0282690Y0234343D01*
X0283716Y0235369D02*
X0284400Y0236053D01*
X0284400Y0236737D01*
X0283374Y0237763D01*
X0281322Y0235711D01*
X0287541Y0233596D02*
X0288909Y0232228D01*
X0275942Y0211629D02*
X0273889Y0209577D01*
X0274574Y0210261D02*
X0275600Y0209235D01*
X0276284Y0209235D01*
X0276968Y0209919D01*
X0276968Y0210603D01*
X0275942Y0211629D01*
X0275258Y0209577D02*
X0275258Y0208209D01*
X0276999Y0208519D02*
X0278367Y0207151D01*
X0276999Y0206467D02*
X0279051Y0208519D01*
X0276999Y0208519D01*
X0254500Y0225534D02*
X0254500Y0226501D01*
X0254016Y0226985D01*
X0254500Y0227997D02*
X0252565Y0229931D01*
X0252081Y0229931D01*
X0251598Y0229448D01*
X0251598Y0228480D01*
X0252081Y0227997D01*
X0252081Y0226985D02*
X0251598Y0226501D01*
X0251598Y0225534D01*
X0252081Y0225050D01*
X0254016Y0225050D01*
X0254500Y0225534D01*
X0254500Y0227997D02*
X0254500Y0229931D01*
X0231500Y0231034D02*
X0231500Y0232001D01*
X0231016Y0232485D01*
X0231500Y0233497D02*
X0231500Y0235431D01*
X0231500Y0234464D02*
X0228598Y0234464D01*
X0229565Y0233497D01*
X0229081Y0232485D02*
X0228598Y0232001D01*
X0228598Y0231034D01*
X0229081Y0230550D01*
X0231016Y0230550D01*
X0231500Y0231034D01*
X0194354Y0227255D02*
X0192419Y0227255D01*
X0193871Y0228706D01*
X0193871Y0225804D01*
X0191408Y0225804D02*
X0189473Y0225804D01*
X0191408Y0227739D01*
X0191408Y0228223D01*
X0190924Y0228706D01*
X0189957Y0228706D01*
X0189473Y0228223D01*
X0188461Y0228223D02*
X0187978Y0228706D01*
X0187010Y0228706D01*
X0186526Y0228223D01*
X0186526Y0226288D01*
X0187010Y0225804D01*
X0187978Y0225804D01*
X0188461Y0226288D01*
X0241781Y0284210D02*
X0243716Y0284210D01*
X0244200Y0284694D01*
X0244200Y0285662D01*
X0243716Y0286145D01*
X0244200Y0287157D02*
X0244200Y0289092D01*
X0244200Y0288124D02*
X0241298Y0288124D01*
X0242265Y0287157D01*
X0241781Y0286145D02*
X0241298Y0285662D01*
X0241298Y0284694D01*
X0241781Y0284210D01*
X0241781Y0290103D02*
X0241298Y0290587D01*
X0241298Y0291555D01*
X0241781Y0292038D01*
X0243716Y0290103D01*
X0244200Y0290587D01*
X0244200Y0291555D01*
X0243716Y0292038D01*
X0241781Y0292038D01*
X0241781Y0290103D02*
X0243716Y0290103D01*
X0217700Y0321657D02*
X0214798Y0321657D01*
X0214798Y0323108D01*
X0215281Y0323592D01*
X0216249Y0323592D01*
X0216733Y0323108D01*
X0216733Y0321657D01*
X0216733Y0322624D02*
X0217700Y0323592D01*
X0217216Y0324603D02*
X0217700Y0325087D01*
X0217700Y0326055D01*
X0217216Y0326538D01*
X0216249Y0326538D01*
X0215765Y0326055D01*
X0215765Y0325571D01*
X0216249Y0324603D01*
X0214798Y0324603D01*
X0214798Y0326538D01*
X0193047Y0303810D02*
X0193047Y0300907D01*
X0192080Y0300907D02*
X0194015Y0300907D01*
X0192080Y0302842D02*
X0193047Y0303810D01*
X0191068Y0303326D02*
X0190585Y0303810D01*
X0189617Y0303810D01*
X0189133Y0303326D01*
X0188122Y0303326D02*
X0187638Y0303810D01*
X0186671Y0303810D01*
X0186187Y0303326D01*
X0186187Y0301391D01*
X0186671Y0300907D01*
X0187638Y0300907D01*
X0188122Y0301391D01*
X0189133Y0300907D02*
X0191068Y0302842D01*
X0191068Y0303326D01*
X0191068Y0300907D02*
X0189133Y0300907D01*
X0222798Y0367657D02*
X0222798Y0369108D01*
X0223281Y0369592D01*
X0224249Y0369592D01*
X0224733Y0369108D01*
X0224733Y0367657D01*
X0225700Y0367657D02*
X0222798Y0367657D01*
X0224733Y0368624D02*
X0225700Y0369592D01*
X0225700Y0370603D02*
X0225700Y0372538D01*
X0225700Y0371571D02*
X0222798Y0371571D01*
X0223765Y0370603D01*
X0194354Y0375894D02*
X0193871Y0375410D01*
X0192903Y0375410D01*
X0192419Y0375894D01*
X0192419Y0376378D01*
X0192903Y0376861D01*
X0193871Y0376861D01*
X0194354Y0376378D01*
X0194354Y0375894D01*
X0193871Y0376861D02*
X0194354Y0377345D01*
X0194354Y0377829D01*
X0193871Y0378313D01*
X0192903Y0378313D01*
X0192419Y0377829D01*
X0192419Y0377345D01*
X0192903Y0376861D01*
X0191408Y0375410D02*
X0189473Y0375410D01*
X0190440Y0375410D02*
X0190440Y0378313D01*
X0189473Y0377345D01*
X0188461Y0377829D02*
X0187978Y0378313D01*
X0187010Y0378313D01*
X0186526Y0377829D01*
X0186526Y0375894D01*
X0187010Y0375410D01*
X0187978Y0375410D01*
X0188461Y0375894D01*
X0119551Y0377829D02*
X0117616Y0375894D01*
X0117616Y0375410D01*
X0116605Y0375410D02*
X0114670Y0375410D01*
X0115637Y0375410D02*
X0115637Y0378313D01*
X0114670Y0377345D01*
X0113658Y0377829D02*
X0113174Y0378313D01*
X0112207Y0378313D01*
X0111723Y0377829D01*
X0111723Y0375894D01*
X0112207Y0375410D01*
X0113174Y0375410D01*
X0113658Y0375894D01*
X0117616Y0378313D02*
X0119551Y0378313D01*
X0119551Y0377829D01*
X0118728Y0303310D02*
X0117760Y0303310D01*
X0117277Y0302826D01*
X0117277Y0300891D01*
X0119212Y0302826D01*
X0119212Y0300891D01*
X0118728Y0300407D01*
X0117760Y0300407D01*
X0117277Y0300891D01*
X0116265Y0300407D02*
X0114330Y0300407D01*
X0116265Y0302342D01*
X0116265Y0302826D01*
X0115781Y0303310D01*
X0114814Y0303310D01*
X0114330Y0302826D01*
X0113319Y0302826D02*
X0112835Y0303310D01*
X0111867Y0303310D01*
X0111384Y0302826D01*
X0111384Y0300891D01*
X0111867Y0300407D01*
X0112835Y0300407D01*
X0113319Y0300891D01*
X0118728Y0303310D02*
X0119212Y0302826D01*
X0119067Y0228706D02*
X0119551Y0228223D01*
X0119551Y0227739D01*
X0119067Y0227255D01*
X0119551Y0226771D01*
X0119551Y0226288D01*
X0119067Y0225804D01*
X0118100Y0225804D01*
X0117616Y0226288D01*
X0116605Y0225804D02*
X0114670Y0225804D01*
X0116605Y0227739D01*
X0116605Y0228223D01*
X0116121Y0228706D01*
X0115153Y0228706D01*
X0114670Y0228223D01*
X0113658Y0228223D02*
X0113174Y0228706D01*
X0112207Y0228706D01*
X0111723Y0228223D01*
X0111723Y0226288D01*
X0112207Y0225804D01*
X0113174Y0225804D01*
X0113658Y0226288D01*
X0117616Y0228223D02*
X0118100Y0228706D01*
X0119067Y0228706D01*
X0119067Y0227255D02*
X0118584Y0227255D01*
X0118244Y0154203D02*
X0117277Y0153236D01*
X0118244Y0154203D02*
X0118244Y0151301D01*
X0117277Y0151301D02*
X0119212Y0151301D01*
X0116265Y0151301D02*
X0114330Y0151301D01*
X0115298Y0151301D02*
X0115298Y0154203D01*
X0114330Y0153236D01*
X0113319Y0153720D02*
X0112835Y0154203D01*
X0111867Y0154203D01*
X0111384Y0153720D01*
X0111384Y0151785D01*
X0111867Y0151301D01*
X0112835Y0151301D01*
X0113319Y0151785D01*
X0055909Y0148703D02*
X0053974Y0148703D01*
X0053974Y0147252D01*
X0054941Y0147736D01*
X0055425Y0147736D01*
X0055909Y0147252D01*
X0055909Y0146285D01*
X0055425Y0145801D01*
X0054457Y0145801D01*
X0053974Y0146285D01*
X0052962Y0145801D02*
X0051027Y0145801D01*
X0052962Y0147736D01*
X0052962Y0148220D01*
X0052478Y0148703D01*
X0051511Y0148703D01*
X0051027Y0148220D01*
X0050016Y0148220D02*
X0049532Y0148703D01*
X0048564Y0148703D01*
X0048081Y0148220D01*
X0048081Y0146285D01*
X0048564Y0145801D01*
X0049532Y0145801D01*
X0050016Y0146285D01*
X0032764Y0074100D02*
X0031797Y0074100D01*
X0031313Y0073616D01*
X0032281Y0072649D02*
X0032764Y0072649D01*
X0033248Y0072165D01*
X0033248Y0071681D01*
X0032764Y0071198D01*
X0031797Y0071198D01*
X0031313Y0071681D01*
X0030302Y0071198D02*
X0028367Y0071198D01*
X0029334Y0071198D02*
X0029334Y0074100D01*
X0028367Y0073133D01*
X0027355Y0073616D02*
X0026871Y0074100D01*
X0025904Y0074100D01*
X0025420Y0073616D01*
X0025420Y0071681D01*
X0025904Y0071198D01*
X0026871Y0071198D01*
X0027355Y0071681D01*
X0032764Y0072649D02*
X0033248Y0073133D01*
X0033248Y0073616D01*
X0032764Y0074100D01*
X0111723Y0076681D02*
X0112207Y0076198D01*
X0113174Y0076198D01*
X0113658Y0076681D01*
X0114670Y0076198D02*
X0116605Y0076198D01*
X0115637Y0076198D02*
X0115637Y0079100D01*
X0114670Y0078133D01*
X0113658Y0078616D02*
X0113174Y0079100D01*
X0112207Y0079100D01*
X0111723Y0078616D01*
X0111723Y0076681D01*
X0117616Y0077649D02*
X0119551Y0077649D01*
X0119067Y0079100D02*
X0117616Y0077649D01*
X0119067Y0076198D02*
X0119067Y0079100D01*
X0186526Y0078616D02*
X0186526Y0076681D01*
X0187010Y0076198D01*
X0187978Y0076198D01*
X0188461Y0076681D01*
X0189473Y0076198D02*
X0191408Y0076198D01*
X0190440Y0076198D02*
X0190440Y0079100D01*
X0189473Y0078133D01*
X0188461Y0078616D02*
X0187978Y0079100D01*
X0187010Y0079100D01*
X0186526Y0078616D01*
X0192419Y0079100D02*
X0192419Y0077649D01*
X0193387Y0078133D01*
X0193871Y0078133D01*
X0194354Y0077649D01*
X0194354Y0076681D01*
X0193871Y0076198D01*
X0192903Y0076198D01*
X0192419Y0076681D01*
X0192419Y0079100D02*
X0194354Y0079100D01*
X0228050Y0056219D02*
X0228050Y0054284D01*
X0228534Y0053800D01*
X0229501Y0053800D01*
X0229985Y0054284D01*
X0230997Y0054284D02*
X0230997Y0053800D01*
X0230997Y0054284D02*
X0232931Y0056219D01*
X0232931Y0056702D01*
X0230997Y0056702D01*
X0229985Y0056219D02*
X0229501Y0056702D01*
X0228534Y0056702D01*
X0228050Y0056219D01*
X0231534Y0036702D02*
X0231050Y0036219D01*
X0231050Y0034284D01*
X0231534Y0033800D01*
X0232501Y0033800D01*
X0232985Y0034284D01*
X0233997Y0034284D02*
X0234480Y0033800D01*
X0235448Y0033800D01*
X0235931Y0034284D01*
X0235931Y0034767D01*
X0235448Y0035251D01*
X0233997Y0035251D01*
X0233997Y0034284D01*
X0233997Y0035251D02*
X0234964Y0036219D01*
X0235931Y0036702D01*
X0232985Y0036219D02*
X0232501Y0036702D01*
X0231534Y0036702D01*
X0263641Y0152100D02*
X0264608Y0152100D01*
X0265092Y0152584D01*
X0266103Y0152584D02*
X0266587Y0152100D01*
X0267555Y0152100D01*
X0268038Y0152584D01*
X0268038Y0153067D01*
X0267555Y0153551D01*
X0267071Y0153551D01*
X0267555Y0153551D02*
X0268038Y0154035D01*
X0268038Y0154519D01*
X0267555Y0155002D01*
X0266587Y0155002D01*
X0266103Y0154519D01*
X0265092Y0154519D02*
X0264608Y0155002D01*
X0263641Y0155002D01*
X0263157Y0154519D01*
X0263157Y0152584D01*
X0263641Y0152100D01*
X0276157Y0152584D02*
X0276641Y0152100D01*
X0277608Y0152100D01*
X0278092Y0152584D01*
X0279103Y0153551D02*
X0280555Y0155002D01*
X0280555Y0152100D01*
X0281038Y0153551D02*
X0279103Y0153551D01*
X0278092Y0154519D02*
X0277608Y0155002D01*
X0276641Y0155002D01*
X0276157Y0154519D01*
X0276157Y0152584D01*
X0252538Y0187600D02*
X0250603Y0187600D01*
X0252538Y0189535D01*
X0252538Y0190019D01*
X0252055Y0190502D01*
X0251087Y0190502D01*
X0250603Y0190019D01*
X0249592Y0190019D02*
X0249592Y0189051D01*
X0249108Y0188567D01*
X0247657Y0188567D01*
X0247657Y0187600D02*
X0247657Y0190502D01*
X0249108Y0190502D01*
X0249592Y0190019D01*
X0248624Y0188567D02*
X0249592Y0187600D01*
X0194015Y0153720D02*
X0193531Y0154203D01*
X0192564Y0154203D01*
X0192080Y0153720D01*
X0194015Y0153720D02*
X0194015Y0153236D01*
X0192080Y0151301D01*
X0194015Y0151301D01*
X0191068Y0151301D02*
X0189133Y0151301D01*
X0190101Y0151301D02*
X0190101Y0154203D01*
X0189133Y0153236D01*
X0188122Y0153720D02*
X0187638Y0154203D01*
X0186671Y0154203D01*
X0186187Y0153720D01*
X0186187Y0151785D01*
X0186671Y0151301D01*
X0187638Y0151301D01*
X0188122Y0151785D01*
X0279723Y0259389D02*
X0277671Y0261442D01*
X0278697Y0262468D01*
X0279381Y0262468D01*
X0280065Y0261784D01*
X0280065Y0261100D01*
X0279039Y0260074D01*
X0279723Y0260758D02*
X0281091Y0260758D01*
X0281465Y0261815D02*
X0282149Y0261815D01*
X0282833Y0262499D01*
X0282833Y0263183D01*
X0282491Y0263525D01*
X0281807Y0263525D01*
X0280781Y0262499D01*
X0281465Y0261815D01*
X0280781Y0262499D02*
X0280781Y0263867D01*
X0281123Y0264893D01*
X0280055Y0270100D02*
X0280538Y0270584D01*
X0280538Y0272519D01*
X0280055Y0273002D01*
X0279087Y0273002D01*
X0278603Y0272519D01*
X0278603Y0272035D01*
X0279087Y0271551D01*
X0280538Y0271551D01*
X0280055Y0270100D02*
X0279087Y0270100D01*
X0278603Y0270584D01*
X0277592Y0270584D02*
X0277108Y0270100D01*
X0276141Y0270100D01*
X0275657Y0270584D01*
X0275657Y0272519D01*
X0276141Y0273002D01*
X0277108Y0273002D01*
X0277592Y0272519D01*
X0277443Y0341550D02*
X0277443Y0342034D01*
X0279378Y0343969D01*
X0279378Y0344452D01*
X0277443Y0344452D01*
X0276431Y0343969D02*
X0275948Y0344452D01*
X0274980Y0344452D01*
X0274497Y0343969D01*
X0273485Y0343969D02*
X0273001Y0344452D01*
X0272034Y0344452D01*
X0271550Y0343969D01*
X0271550Y0342034D01*
X0272034Y0341550D01*
X0273001Y0341550D01*
X0273485Y0342034D01*
X0274497Y0341550D02*
X0276431Y0343485D01*
X0276431Y0343969D01*
X0276431Y0341550D02*
X0274497Y0341550D01*
X0330141Y0154502D02*
X0329657Y0154019D01*
X0329657Y0152084D01*
X0330141Y0151600D01*
X0331108Y0151600D01*
X0331592Y0152084D01*
X0332603Y0152084D02*
X0332603Y0152567D01*
X0333087Y0153051D01*
X0334055Y0153051D01*
X0334538Y0152567D01*
X0334538Y0152084D01*
X0334055Y0151600D01*
X0333087Y0151600D01*
X0332603Y0152084D01*
X0333087Y0153051D02*
X0332603Y0153535D01*
X0332603Y0154019D01*
X0333087Y0154502D01*
X0334055Y0154502D01*
X0334538Y0154019D01*
X0334538Y0153535D01*
X0334055Y0153051D01*
X0331592Y0154019D02*
X0331108Y0154502D01*
X0330141Y0154502D01*
X0343157Y0154019D02*
X0343157Y0152084D01*
X0343641Y0151600D01*
X0344608Y0151600D01*
X0345092Y0152084D01*
X0346103Y0152084D02*
X0346587Y0151600D01*
X0347555Y0151600D01*
X0348038Y0152084D01*
X0348038Y0153051D01*
X0347555Y0153535D01*
X0347071Y0153535D01*
X0346103Y0153051D01*
X0346103Y0154502D01*
X0348038Y0154502D01*
X0345092Y0154019D02*
X0344608Y0154502D01*
X0343641Y0154502D01*
X0343157Y0154019D01*
X0348157Y0056002D02*
X0349608Y0056002D01*
X0350092Y0055519D01*
X0350092Y0054551D01*
X0349608Y0054067D01*
X0348157Y0054067D01*
X0348157Y0053100D02*
X0348157Y0056002D01*
X0349124Y0054067D02*
X0350092Y0053100D01*
X0351103Y0053584D02*
X0351587Y0053100D01*
X0352555Y0053100D01*
X0353038Y0053584D01*
X0353038Y0054067D01*
X0352555Y0054551D01*
X0352071Y0054551D01*
X0352555Y0054551D02*
X0353038Y0055035D01*
X0353038Y0055519D01*
X0352555Y0056002D01*
X0351587Y0056002D01*
X0351103Y0055519D01*
X0044748Y0225804D02*
X0042813Y0225804D01*
X0044748Y0227739D01*
X0044748Y0228223D01*
X0044264Y0228706D01*
X0043297Y0228706D01*
X0042813Y0228223D01*
X0041802Y0228223D02*
X0041318Y0228706D01*
X0040350Y0228706D01*
X0039867Y0228223D01*
X0038855Y0228223D02*
X0038371Y0228706D01*
X0037404Y0228706D01*
X0036920Y0228223D01*
X0036920Y0226288D01*
X0037404Y0225804D01*
X0038371Y0225804D01*
X0038855Y0226288D01*
X0039867Y0225804D02*
X0041802Y0227739D01*
X0041802Y0228223D01*
X0041802Y0225804D02*
X0039867Y0225804D01*
X0039527Y0300407D02*
X0041462Y0300407D01*
X0040495Y0300407D02*
X0040495Y0303310D01*
X0039527Y0302342D01*
X0038516Y0302826D02*
X0038032Y0303310D01*
X0037064Y0303310D01*
X0036581Y0302826D01*
X0036581Y0300891D01*
X0037064Y0300407D01*
X0038032Y0300407D01*
X0038516Y0300891D01*
X0042474Y0300891D02*
X0042957Y0300407D01*
X0043925Y0300407D01*
X0044409Y0300891D01*
X0044409Y0302826D01*
X0043925Y0303310D01*
X0042957Y0303310D01*
X0042474Y0302826D01*
X0042474Y0302342D01*
X0042957Y0301858D01*
X0044409Y0301858D01*
X0044264Y0375410D02*
X0044748Y0375894D01*
X0044748Y0376378D01*
X0044264Y0376861D01*
X0042813Y0376861D01*
X0042813Y0375894D01*
X0043297Y0375410D01*
X0044264Y0375410D01*
X0042813Y0376861D02*
X0043781Y0377829D01*
X0044748Y0378313D01*
X0040834Y0378313D02*
X0040834Y0375410D01*
X0039867Y0375410D02*
X0041802Y0375410D01*
X0039867Y0377345D02*
X0040834Y0378313D01*
X0038855Y0377829D02*
X0038371Y0378313D01*
X0037404Y0378313D01*
X0036920Y0377829D01*
X0036920Y0375894D01*
X0037404Y0375410D01*
X0038371Y0375410D01*
X0038855Y0375894D01*
D17*
X0225800Y0346621D02*
X0225800Y0346582D01*
D18*
X0220800Y0349102D02*
X0230839Y0349102D01*
X0230839Y0354259D01*
X0220800Y0354259D01*
X0220800Y0349102D01*
M02*
