G75*
%MOIN*%
%OFA0B0*%
%FSLAX25Y25*%
%IPPOS*%
%LPD*%
%AMOC8*
5,1,8,0,0,1.08239X$1,22.5*
%
%ADD10C,0.13500*%
%ADD11C,0.16900*%
%ADD12C,0.06800*%
%ADD13C,0.13800*%
%ADD14C,0.02375*%
%ADD15R,0.03950X0.05524*%
%ADD16R,0.01587X0.04737*%
%ADD17R,0.04737X0.01587*%
%ADD18R,0.06312X0.03556*%
%ADD19R,0.08674X0.06312*%
%ADD20R,0.06312X0.05839*%
%ADD21R,0.06312X0.08477*%
%ADD22C,0.05721*%
%ADD23C,0.06800*%
%ADD24R,0.02178X0.06312*%
%ADD25R,0.06706X0.06902*%
%ADD26C,0.07591*%
%ADD27C,0.05820*%
%ADD28C,0.01500*%
%ADD29R,0.06800X0.03800*%
%ADD30R,0.08700X0.06700*%
%ADD31R,0.08700X0.15800*%
%ADD32R,0.05524X0.03950*%
%ADD33R,0.05131X0.03950*%
%ADD34R,0.05131X0.04737*%
%ADD35R,0.04737X0.04146*%
%ADD36R,0.03517X0.04698*%
%ADD37R,0.11430X0.07099*%
%ADD38C,0.05800*%
%ADD39C,0.13398*%
D10*
X0030770Y0020770D03*
X0055770Y0030770D03*
X0105573Y0020770D03*
X0130573Y0030770D03*
X0180376Y0020770D03*
X0205376Y0030770D03*
X0180376Y0095573D03*
X0205376Y0105573D03*
X0180376Y0170376D03*
X0205376Y0180376D03*
X0180376Y0245180D03*
X0205376Y0255180D03*
X0180376Y0319983D03*
X0205376Y0329983D03*
X0130573Y0329983D03*
X0105573Y0319983D03*
X0055770Y0329983D03*
X0030770Y0319983D03*
X0055770Y0255180D03*
X0030770Y0245180D03*
X0055770Y0180376D03*
X0030770Y0170376D03*
X0055770Y0105573D03*
X0030770Y0095573D03*
X0105573Y0095573D03*
X0130573Y0105573D03*
X0105573Y0170376D03*
X0130573Y0180376D03*
X0105573Y0245180D03*
X0130573Y0255180D03*
D11*
X0115573Y0265180D03*
X0115573Y0190376D03*
X0115573Y0115573D03*
X0115573Y0040770D03*
X0040770Y0040770D03*
X0040770Y0115573D03*
X0040770Y0190376D03*
X0040770Y0265180D03*
X0040770Y0339983D03*
X0115573Y0339983D03*
X0190376Y0339983D03*
X0190376Y0265180D03*
X0190376Y0190376D03*
X0190376Y0115573D03*
X0190376Y0040770D03*
D12*
X0286861Y0180376D03*
X0286861Y0190376D03*
X0286861Y0200376D03*
X0343861Y0200376D03*
X0343861Y0180376D03*
X0343861Y0329983D03*
X0343861Y0349983D03*
X0286861Y0349983D03*
X0286861Y0339983D03*
X0286861Y0329983D03*
D13*
X0316361Y0313983D03*
X0316361Y0365983D03*
X0316361Y0216376D03*
X0316361Y0164376D03*
D14*
X0318329Y0066557D03*
X0255337Y0066557D03*
D15*
X0236943Y0049400D03*
X0229857Y0049400D03*
X0229857Y0040900D03*
X0236943Y0040900D03*
X0193920Y0072298D03*
X0186833Y0072298D03*
X0119117Y0072298D03*
X0112030Y0072298D03*
X0044313Y0072298D03*
X0037227Y0072298D03*
X0037227Y0147101D03*
X0044313Y0147101D03*
X0112030Y0147101D03*
X0119117Y0147101D03*
X0186833Y0147101D03*
X0193920Y0147101D03*
X0237357Y0189400D03*
X0244443Y0189400D03*
G36*
X0269339Y0204556D02*
X0266546Y0207349D01*
X0270451Y0211254D01*
X0273244Y0208461D01*
X0269339Y0204556D01*
G37*
G36*
X0274349Y0199546D02*
X0271556Y0202339D01*
X0275461Y0206244D01*
X0278254Y0203451D01*
X0274349Y0199546D01*
G37*
G36*
X0282961Y0232744D02*
X0285754Y0229951D01*
X0281849Y0226046D01*
X0279056Y0228839D01*
X0282961Y0232744D01*
G37*
G36*
X0277951Y0237754D02*
X0280744Y0234961D01*
X0276839Y0231056D01*
X0274046Y0233849D01*
X0277951Y0237754D01*
G37*
G36*
X0285244Y0254839D02*
X0282451Y0252046D01*
X0278546Y0255951D01*
X0281339Y0258744D01*
X0285244Y0254839D01*
G37*
G36*
X0290254Y0259849D02*
X0287461Y0257056D01*
X0283556Y0260961D01*
X0286349Y0263754D01*
X0290254Y0259849D01*
G37*
X0278443Y0276900D03*
X0271357Y0276900D03*
X0193920Y0296707D03*
X0186833Y0296707D03*
X0119117Y0296707D03*
X0112030Y0296707D03*
X0044313Y0296707D03*
X0037227Y0296707D03*
X0037227Y0221904D03*
X0044313Y0221904D03*
X0112030Y0221904D03*
X0119117Y0221904D03*
X0186833Y0221904D03*
X0193920Y0221904D03*
X0258857Y0158900D03*
X0265943Y0158900D03*
X0271857Y0158900D03*
X0278943Y0158900D03*
X0330357Y0158900D03*
X0337443Y0158900D03*
X0344357Y0158900D03*
X0351443Y0158900D03*
X0350443Y0049400D03*
X0343357Y0049400D03*
X0193920Y0371510D03*
X0186833Y0371510D03*
X0119117Y0371510D03*
X0112030Y0371510D03*
X0044313Y0371510D03*
X0037227Y0371510D03*
D16*
X0242542Y0278959D03*
X0244510Y0278959D03*
X0246479Y0278959D03*
X0248447Y0278959D03*
X0250416Y0278959D03*
X0252384Y0278959D03*
X0254353Y0278959D03*
X0256321Y0278959D03*
X0258290Y0278959D03*
X0260258Y0278959D03*
X0262227Y0278959D03*
X0264195Y0278959D03*
X0264195Y0243526D03*
X0262227Y0243526D03*
X0260258Y0243526D03*
X0258290Y0243526D03*
X0256321Y0243526D03*
X0254353Y0243526D03*
X0252384Y0243526D03*
X0250416Y0243526D03*
X0248447Y0243526D03*
X0246479Y0243526D03*
X0244510Y0243526D03*
X0242542Y0243526D03*
D17*
X0235652Y0250416D03*
X0235652Y0252384D03*
X0235652Y0254353D03*
X0235652Y0256321D03*
X0235652Y0258290D03*
X0235652Y0260258D03*
X0235652Y0262227D03*
X0235652Y0264195D03*
X0235652Y0266164D03*
X0235652Y0268132D03*
X0235652Y0270101D03*
X0235652Y0272069D03*
X0271085Y0272069D03*
X0271085Y0270101D03*
X0271085Y0268132D03*
X0271085Y0266164D03*
X0271085Y0264195D03*
X0271085Y0262227D03*
X0271085Y0260258D03*
X0271085Y0258290D03*
X0271085Y0256321D03*
X0271085Y0254353D03*
X0271085Y0252384D03*
X0271085Y0250416D03*
D18*
X0294235Y0252187D03*
X0294235Y0247857D03*
X0294235Y0243526D03*
X0294235Y0239195D03*
X0294235Y0256518D03*
X0294235Y0260849D03*
X0294235Y0265180D03*
X0294235Y0269510D03*
X0294235Y0273841D03*
D19*
X0335455Y0296282D03*
X0335455Y0234077D03*
D20*
X0297660Y0233841D03*
D21*
X0297660Y0292837D03*
D22*
X0337030Y0277384D03*
X0337030Y0245888D03*
D23*
X0273369Y0297613D02*
X0273369Y0303613D01*
X0263369Y0303613D02*
X0263369Y0297613D01*
X0253369Y0297613D02*
X0253369Y0303613D01*
X0243369Y0303613D02*
X0243369Y0297613D01*
X0233369Y0297613D02*
X0233369Y0303613D01*
D24*
X0248250Y0363014D03*
X0250809Y0363014D03*
X0253369Y0363014D03*
X0255928Y0363014D03*
X0258487Y0363014D03*
D25*
X0257306Y0373447D03*
X0249431Y0373447D03*
D26*
X0239589Y0373447D03*
X0267148Y0373447D03*
D27*
X0263211Y0362817D03*
X0243526Y0362817D03*
D28*
X0244313Y0370298D02*
X0239983Y0370298D01*
X0239368Y0370358D01*
X0238777Y0370537D01*
X0238233Y0370828D01*
X0237756Y0371220D01*
X0237364Y0371697D01*
X0237073Y0372242D01*
X0236894Y0372833D01*
X0236833Y0373447D01*
X0236894Y0374062D01*
X0237073Y0374653D01*
X0237364Y0375197D01*
X0237756Y0375674D01*
X0238233Y0376066D01*
X0238777Y0376357D01*
X0239368Y0376536D01*
X0239983Y0376597D01*
X0244313Y0376597D01*
X0244313Y0370298D01*
X0244313Y0371532D02*
X0237499Y0371532D01*
X0236874Y0373031D02*
X0244313Y0373031D01*
X0244313Y0374529D02*
X0237035Y0374529D01*
X0238186Y0376028D02*
X0244313Y0376028D01*
X0262424Y0376028D02*
X0268551Y0376028D01*
X0268504Y0376066D02*
X0268981Y0375674D01*
X0269373Y0375197D01*
X0269664Y0374653D01*
X0269843Y0374062D01*
X0269904Y0373447D01*
X0269843Y0372833D01*
X0269664Y0372242D01*
X0269373Y0371697D01*
X0268981Y0371220D01*
X0268504Y0370828D01*
X0267960Y0370537D01*
X0267369Y0370358D01*
X0266754Y0370298D01*
X0262424Y0370298D01*
X0262424Y0376597D01*
X0266754Y0376597D01*
X0267369Y0376536D01*
X0267960Y0376357D01*
X0268504Y0376066D01*
X0269702Y0374529D02*
X0262424Y0374529D01*
X0262424Y0373031D02*
X0269863Y0373031D01*
X0269238Y0371532D02*
X0262424Y0371532D01*
D29*
X0264369Y0213624D03*
X0264369Y0198624D03*
X0264369Y0182128D03*
X0264369Y0167128D03*
X0242369Y0167128D03*
X0242369Y0182128D03*
X0242369Y0198624D03*
X0242369Y0213624D03*
X0246306Y0042428D03*
X0246306Y0027428D03*
X0268306Y0027428D03*
X0268306Y0042428D03*
X0305361Y0042428D03*
X0305361Y0027428D03*
X0327361Y0027428D03*
X0327361Y0042428D03*
D30*
X0262269Y0327146D03*
X0262269Y0336146D03*
X0262269Y0345146D03*
D31*
X0237469Y0336046D03*
D32*
X0221400Y0323943D03*
X0221400Y0316857D03*
X0237400Y0289943D03*
X0237400Y0282857D03*
X0235400Y0240443D03*
X0235400Y0233357D03*
X0258400Y0234943D03*
X0258400Y0227857D03*
X0229400Y0362857D03*
X0229400Y0369943D03*
D33*
G36*
X0273421Y0226205D02*
X0269794Y0229832D01*
X0272587Y0232625D01*
X0276214Y0228998D01*
X0273421Y0226205D01*
G37*
G36*
X0269802Y0222586D02*
X0266175Y0226213D01*
X0268968Y0229006D01*
X0272595Y0225379D01*
X0269802Y0222586D01*
G37*
D34*
G36*
X0281745Y0213762D02*
X0278118Y0217389D01*
X0281467Y0220738D01*
X0285094Y0217111D01*
X0281745Y0213762D01*
G37*
D35*
X0197266Y0213506D03*
X0197266Y0206617D03*
X0183487Y0206617D03*
X0183487Y0213506D03*
X0122463Y0213506D03*
X0122463Y0206617D03*
X0108683Y0206617D03*
X0108683Y0213506D03*
X0047660Y0213506D03*
X0047660Y0206617D03*
X0033880Y0206617D03*
X0033880Y0213506D03*
X0033880Y0281420D03*
X0033880Y0288309D03*
X0047660Y0288309D03*
X0047660Y0281420D03*
X0108683Y0281420D03*
X0108683Y0288309D03*
X0122463Y0288309D03*
X0122463Y0281420D03*
X0183487Y0281420D03*
X0183487Y0288309D03*
X0197266Y0288309D03*
X0197266Y0281420D03*
X0197266Y0356223D03*
X0197266Y0363113D03*
X0183487Y0363113D03*
X0183487Y0356223D03*
X0122463Y0356223D03*
X0122463Y0363113D03*
X0108683Y0363113D03*
X0108683Y0356223D03*
X0047660Y0356223D03*
X0047660Y0363113D03*
X0033880Y0363113D03*
X0033880Y0356223D03*
X0033880Y0138703D03*
X0033880Y0131813D03*
X0047660Y0131813D03*
X0047660Y0138703D03*
X0108683Y0138703D03*
X0108683Y0131813D03*
X0122463Y0131813D03*
X0122463Y0138703D03*
X0183487Y0138703D03*
X0183487Y0131813D03*
X0197266Y0131813D03*
X0197266Y0138703D03*
X0197266Y0063900D03*
X0197266Y0057010D03*
X0183487Y0057010D03*
X0183487Y0063900D03*
X0122463Y0063900D03*
X0122463Y0057010D03*
X0108683Y0057010D03*
X0108683Y0063900D03*
X0047660Y0063900D03*
X0047660Y0057010D03*
X0033880Y0057010D03*
X0033880Y0063900D03*
D36*
X0222060Y0346621D03*
X0225800Y0346621D03*
X0229540Y0346621D03*
X0229540Y0356818D03*
X0222060Y0356818D03*
D37*
X0274400Y0336412D03*
X0274400Y0325388D03*
D38*
X0236900Y0352900D03*
X0226400Y0336400D03*
D39*
X0280928Y0367542D03*
X0152975Y0302581D03*
X0152975Y0227778D03*
X0078172Y0302581D03*
X0078172Y0152975D03*
X0078172Y0078172D03*
X0152975Y0078172D03*
X0286833Y0013211D03*
X0343920Y0223841D03*
M02*
